<svg version="1.1" xmlns="http://www.w3.org/2000/svg" style="display: block;" viewBox="0 0 2048 673" width="1536" height="505" preserveAspectRatio="none">
<defs>
	<linearGradient id="Gradient1" gradientUnits="userSpaceOnUse" x1="1822.42" y1="261.389" x2="1813.71" y2="249.206">
		<stop class="stop0" offset="0" stop-opacity="1" stop-color="rgb(245,242,133)"/>
		<stop class="stop1" offset="1" stop-opacity="1" stop-color="rgb(255,254,204)"/>
	</linearGradient>
	<linearGradient id="Gradient2" gradientUnits="userSpaceOnUse" x1="441.571" y1="411.339" x2="517.856" y2="486.864">
		<stop class="stop0" offset="0" stop-opacity="1" stop-color="rgb(254,254,129)"/>
		<stop class="stop1" offset="1" stop-opacity="1" stop-color="rgb(255,254,221)"/>
	</linearGradient>
</defs>
<path transform="translate(0,0)" fill="rgb(255,255,255)" d="M 0 0 L 2048 0 L 2048 673 L 0 673 L 0 0 z"/>
<path transform="translate(0,0)" fill="rgb(0,0,0)" d="M 369.561 27.446 C 370.578 27.3771 371.595 27.3248 372.613 27.2892 C 457.036 24.8069 538.935 56.2521 600.004 114.596 C 660.735 171.532 696.017 250.499 697.912 333.723 C 702.989 505.737 568.763 636.337 399.561 641.104 C 398.049 641.197 396.535 641.271 395.02 641.327 C 218.609 647.86 75.9961 531.021 68.8356 350.744 C 65.3616 263.281 93.0694 185.538 152.776 121.463 C 210.914 59.0711 285.117 30.5012 369.561 27.446 z"/>
<path transform="translate(0,0)" fill="rgb(209,223,16)" d="M 85.9602 308.98 C 86.2446 274.117 102.87 229.134 118.388 198.236 C 192.934 49.8101 380.071 4.10973 523.549 78.8512 C 585.072 110.9 643.541 174.887 664.335 242.648 C 668.568 251.458 672.587 268.21 674.583 277.778 C 685.664 330.889 683.924 385.616 665.941 436.979 C 642.688 505.553 592.602 561.754 527.149 592.719 C 448.418 630.501 355.856 634.886 272.207 608.227 C 268.93 607.183 257.998 603.202 255.22 601.644 C 186.949 573.987 120.731 507.004 100.628 435.291 C 87.3729 410.856 80.9688 336.575 85.9602 308.98 z"/>
<path transform="translate(0,0)" fill="rgb(252,251,198)" d="M 85.9602 308.98 C 86.2446 274.117 102.87 229.134 118.388 198.236 C 192.934 49.8101 380.071 4.10973 523.549 78.8512 C 585.072 110.9 643.541 174.887 664.335 242.648 C 662.125 240.929 660.024 236.225 658.871 233.601 C 550.553 -12.8918 181.109 -8.40933 99.4797 256.48 C 97.131 264.101 88.3637 306.034 85.9602 308.98 z"/>
<path transform="translate(0,0)" fill="rgb(252,253,91)" d="M 100.628 435.291 L 101.832 435.113 C 104.064 439.632 106.698 449.921 109.265 452.333 L 110.714 451.521 C 110.252 448.013 104.421 438.085 105.382 435.104 C 113.782 452.455 121.674 470.721 132.289 486.984 C 163.153 534.276 206.627 570.399 255.423 597.968 C 256.882 598.792 256.225 600.749 255.22 601.644 C 186.949 573.987 120.731 507.004 100.628 435.291 z"/>
<path transform="translate(0,0)" fill="rgb(0,0,0)" d="M 356.136 553.992 C 352.366 552.729 338.282 550.264 332.532 548.667 C 306.358 541.567 282.802 527.036 264.712 506.832 C 217.491 453.685 211.558 370.547 213.958 302.76 C 217.305 208.176 266.797 125.755 371.144 132.188 C 405.822 134.326 440.561 146.468 466.689 170.413 C 475.567 178.549 481.712 187.309 489.573 196.197 L 491.114 195.819 C 499.398 206.693 513.107 240.998 518.663 243.339 C 517.446 237.089 506.599 217.221 503.342 210.97 L 504.281 211.105 L 503.275 209.902 C 509.725 216.951 512.389 224.945 516.226 233.445 C 530.344 264.722 536.919 297.962 538.423 332.159 C 544.64 432.412 520.411 550.367 399.056 557.585 C 390.894 558.07 361.863 559.083 356.136 553.992 z"/>
<path transform="translate(0,0)" fill="url(#Gradient2)" d="M 531.22 326.283 C 532.176 323.213 531.911 321.969 534.19 320.698 C 535.961 326.642 535.105 326.674 538.423 332.159 C 544.64 432.412 520.411 550.367 399.056 557.585 C 390.894 558.07 361.863 559.083 356.136 553.992 C 366.459 554.951 376.829 555.294 387.192 555.018 C 433.976 553.375 478.719 532.432 502.779 491.297 C 532.391 440.667 533.312 382.729 531.22 326.283 z"/>
<path transform="translate(0,0)" fill="rgb(252,253,91)" d="M 489.573 196.197 L 491.114 195.819 C 499.398 206.693 513.107 240.998 518.663 243.339 C 517.446 237.089 506.599 217.221 503.342 210.97 L 504.281 211.105 L 503.275 209.902 C 509.725 216.951 512.389 224.945 516.226 233.445 C 530.344 264.722 536.919 297.962 538.423 332.159 C 535.105 326.674 535.961 326.642 534.19 320.698 C 531.911 321.969 532.176 323.213 531.22 326.283 C 526.153 275.332 515.768 239.646 489.573 196.197 z"/>
<path transform="translate(0,0)" fill="rgb(255,255,255)" d="M 349.024 145.425 C 371.393 142.95 401.667 148.685 422.324 157.57 C 391.355 180.121 381.872 190.675 369.493 227.716 C 315.807 227.76 284.974 260.082 269.964 309.677 C 248.891 379.305 272.321 481.429 350.004 505.109 C 407.149 522.529 462.157 485.692 476.639 429.391 C 488.618 382.823 482.138 333.127 458.56 290.863 C 440.486 258.451 419.2 239.649 382.987 229.382 L 383.065 229.12 C 390.998 203.236 401.464 189.214 424.487 174.763 C 430.794 170.285 430.889 170.849 432.208 163.463 C 436.187 162.894 449.575 173.857 453.085 176.879 C 496.393 214.173 513.319 278.06 517.407 333.077 C 521.494 388.087 514.642 455.92 478.547 500.235 C 442.589 542.699 376.781 548.772 327.462 531.335 C 255.105 505.753 232.791 423.479 228.35 354.233 C 222.663 265.565 239.788 153.176 349.024 145.425 z"/>
<path transform="translate(0,0)" fill="rgb(0,0,0)" d="M 417.357 196.595 L 414.678 193.67 C 416.889 189.879 426.614 192.282 430.4 192.723 C 457.109 195.83 476.633 218.24 481.454 243.885 C 482.007 246.799 482.283 247.503 481.501 250.558 C 470.737 265.844 403.586 233.372 408.718 198.642 C 409.687 198.825 409.894 198.726 410.59 199.31 C 413.379 197.77 414.277 197.483 417.357 196.595 z"/>
<path transform="translate(0,0)" fill="rgb(209,223,16)" d="M 417.357 196.595 C 424.48 198.56 428.88 200.296 435.004 204.538 C 450.378 211.795 460.388 224.581 467.056 240.034 C 442.186 234.96 430.417 223.565 416.149 204.117 C 415.475 203.732 411.437 200.06 410.59 199.31 C 413.379 197.77 414.277 197.483 417.357 196.595 z"/>
<path transform="translate(0,0)" fill="rgb(252,251,198)" d="M 417.357 196.595 C 424.48 198.56 428.88 200.296 435.004 204.538 C 433.867 206.42 433.601 207.034 431.731 208.351 C 436.221 212.841 451.041 218.066 451.469 225.871 L 450.37 227.919 C 445.216 225.727 423.611 206.785 416.686 204.315 L 416.149 204.117 C 415.475 203.732 411.437 200.06 410.59 199.31 C 413.379 197.77 414.277 197.483 417.357 196.595 z"/>
<path transform="translate(0,0)" fill="rgb(0,0,0)" d="M 372.596 207.06 L 371.63 208.188 C 353.45 214.482 331.9 204.959 319.302 191.954 C 304.377 176.007 296.962 161.49 327.263 163.545 C 345.443 164.777 378.048 177.591 375.597 200.816 L 372.596 207.06 z"/>
<path transform="translate(0,0)" fill="rgb(209,223,16)" d="M 322.236 176.59 C 344.529 178.006 353.418 182.108 369.784 196.69 L 375.597 200.816 L 372.596 207.06 L 370.252 204.569 C 349.448 199.254 336.469 192.324 322.236 176.59 z"/>
<path transform="translate(0,0)" fill="rgb(252,251,198)" d="M 335.847 182.539 C 348.544 185.714 354.528 190.175 365.607 196.426 C 366.553 196.961 368.651 196.845 369.784 196.69 L 375.597 200.816 L 372.596 207.06 L 370.252 204.569 C 364.745 197.238 345.951 192.849 335.847 182.539 z"/>
<path transform="translate(0,0)" fill="rgb(209,223,16)" d="M 355.752 241.215 C 379.774 237.705 410.673 249.082 425.337 268.632 C 435.233 278.408 442.371 290.1 448.847 302.565 C 475.47 353.812 479.74 429.489 437.54 473.872 C 411.547 501.21 362.417 504.892 332.107 482.942 C 332.042 482.866 331.976 482.791 331.911 482.716 C 297.052 463.442 276.958 409.224 277.032 371.123 C 275.47 358.153 277.461 337.751 280.508 325.101 C 288.676 289.773 314.375 241.484 355.752 241.215 z"/>
<path transform="translate(0,0)" fill="rgb(252,253,91)" d="M 277.032 371.123 C 279.06 368.298 278.45 368.578 278.828 364.626 C 278.86 364.665 280.711 369.635 280.932 370.452 C 289.187 417.282 298.774 444.877 332.58 479.714 C 333.217 480.37 332.315 482.076 331.911 482.716 C 297.052 463.442 276.958 409.224 277.032 371.123 z"/>
<path transform="translate(0,0)" fill="rgb(252,251,198)" d="M 355.752 241.215 C 379.774 237.705 410.673 249.082 425.337 268.632 C 423.853 268.67 403.411 254.693 400.092 251.95 C 389.434 243.138 364.356 245.308 355.752 241.215 z"/>
<path transform="translate(0,0)" fill="rgb(255,255,255)" d="M 359.538 251.28 C 369.648 250.64 381.775 251.055 390.426 257.037 C 393.532 259.183 396.202 262.258 396.836 266.083 C 397.336 269.105 396.437 271.909 394.612 274.332 C 388.761 282.094 376.103 283.521 367.252 284.581 C 358.04 285.494 344.296 284.321 336.474 279.049 C 333.461 277.018 330.904 274.043 330.3 270.366 C 329.801 267.334 330.754 264.551 332.542 262.105 C 338.306 254.22 350.589 252.735 359.538 251.28 z"/>
<path transform="translate(0,0)" fill="rgb(255,255,255)" d="M 315.682 285.666 C 317.557 285.914 319.958 286.882 321.456 288.023 C 322.942 289.153 323.681 290.654 323.82 292.479 C 324.248 298.094 318.57 305.149 316.466 310.344 C 311.927 321.554 316.812 337.389 309.103 346.564 C 306.849 346.121 304.504 345.697 302.826 344.002 C 299.945 341.092 299.553 336.021 299.535 332.119 C 299.464 317.056 304.945 296.425 315.682 285.666 z"/>
<path transform="translate(0,0)" fill="rgb(0,0,0)" d="M 1520.18 219.426 C 1521.61 219.264 1523.6 219.265 1525.08 219.235 C 1574.41 218.261 1623.48 231.368 1659.53 266.488 C 1671.92 278.36 1683.2 292.55 1688.92 308.917 C 1698.47 336.235 1696.83 367.717 1697.38 396.411 L 1698.71 464.608 C 1710.27 467.102 1725.95 468.017 1734.01 478.359 C 1742.11 488.743 1739.01 512.608 1738.72 525.426 C 1738.59 530.995 1733.99 538.787 1728.95 541.944 C 1703.69 557.752 1657.03 557.734 1628.46 554.161 C 1608.17 551.624 1598.99 544.877 1587.95 529.813 C 1554.29 562.76 1500.55 564.659 1457.77 550.994 C 1415.55 537.235 1392.25 503.986 1390.88 459.737 C 1387.74 358.645 1489.07 342.708 1568.83 340.827 C 1566.83 332.307 1565.27 325.842 1557.95 320.003 C 1538.13 305.762 1502.32 312.21 1480.71 319.405 C 1462.86 325.346 1439.27 342.3 1421.61 325.933 C 1411.71 316.756 1403.18 288.707 1400.43 275.211 C 1399.36 269.938 1403.85 259.258 1407.86 255.51 C 1433.1 230.672 1487.3 221.518 1520.18 219.426 z"/>
<path transform="translate(0,0)" fill="rgb(209,223,16)" d="M 1416.45 277.114 C 1416.77 271.921 1417.86 267.237 1422.56 263.947 C 1457.37 239.594 1505.48 235.003 1546.28 236.014 C 1593.43 237.182 1662.95 270.597 1675.4 320.232 C 1685.26 343.905 1678.87 472.681 1685.2 477.311 C 1699.7 481.896 1721.5 478.25 1723.41 496.071 C 1721.73 509.719 1729.79 529.307 1710.67 533.863 C 1681.73 540.755 1642.52 544.377 1614.23 533.855 C 1602.77 529.596 1595.25 511.558 1591.76 500.888 C 1565.56 535.577 1541.04 544.78 1498.39 542.537 C 1442.85 539.616 1402.67 508.051 1406.98 449.042 C 1407.25 365.593 1520.03 355.578 1580.58 356.862 C 1583.82 356.931 1584.14 356.262 1585.94 354.064 C 1582.43 333.068 1584.26 312.836 1559.73 302.125 C 1538.68 292.929 1499.8 295.49 1478.78 303.953 C 1429.31 323.871 1434.05 325.683 1416.45 277.114 z"/>
<path transform="translate(0,0)" fill="rgb(252,251,198)" d="M 1416.45 277.114 C 1416.77 271.921 1417.86 267.237 1422.56 263.947 C 1457.37 239.594 1505.48 235.003 1546.28 236.014 C 1593.43 237.182 1662.95 270.597 1675.4 320.232 C 1671.96 316.376 1669.71 310.962 1666.78 306.549 C 1641.07 267.734 1596.37 247.157 1550.87 242.842 C 1510.28 238.992 1464.08 246.04 1428.04 266.145 C 1425.34 267.649 1419.73 274.42 1416.45 277.114 z"/>
<path transform="translate(0,0)" fill="rgb(252,251,198)" d="M 1585.94 354.064 L 1587.42 354.335 C 1588.18 357.461 1588.57 358.404 1587.74 361.46 C 1584.98 363.852 1581.31 362.764 1577.45 362.648 C 1560.9 362.074 1544.33 362.6 1527.85 364.222 C 1475.2 369.595 1418.84 388.312 1410.04 445.369 C 1409.65 447.879 1409.33 448.484 1406.98 449.042 C 1407.25 365.593 1520.03 355.578 1580.58 356.862 C 1583.82 356.931 1584.14 356.262 1585.94 354.064 z"/>
<path transform="translate(0,0)" fill="rgb(252,251,198)" d="M 1685.2 477.311 C 1699.7 481.896 1721.5 478.25 1723.41 496.071 C 1715.55 486.694 1697.47 487.034 1686.23 481.552 C 1684.51 479.029 1684.7 480.105 1685.2 477.311 z"/>
<path transform="translate(0,0)" fill="rgb(0,0,0)" d="M 1493.22 468.832 C 1471.34 407.742 1543.22 408.047 1583.88 404.823 C 1584.13 417.37 1584.11 435.689 1585.28 447.771 C 1587.14 450.815 1587.21 456.906 1586.06 460.245 C 1576.57 487.669 1542.47 497.65 1516.3 490.882 C 1507.03 488.486 1491.94 480.179 1493.22 468.832 z"/>
<path transform="translate(0,0)" fill="rgb(252,251,198)" d="M 1585.28 447.771 C 1587.14 450.815 1587.21 456.906 1586.06 460.245 C 1576.57 487.669 1542.47 497.65 1516.3 490.882 C 1507.03 488.486 1491.94 480.179 1493.22 468.832 C 1516.37 502.843 1575.04 489.68 1585.28 447.771 z"/>
<path transform="translate(0,0)" fill="rgb(255,255,255)" d="M 1560.04 422.382 C 1562.8 422.06 1565.59 421.503 1568.25 422.559 C 1570.37 428.635 1569.8 441 1568.12 447.216 C 1565.83 455.652 1559.87 462.414 1552.37 466.711 C 1541.41 472.986 1529.43 472.979 1517.55 469.783 C 1515.87 468.827 1514.15 467.841 1512.62 466.659 C 1507.84 462.95 1505.86 456.427 1505.1 450.651 C 1504.48 445.881 1505.32 441.161 1508.38 437.336 C 1518.32 424.931 1545.06 424.229 1560.04 422.382 z"/>
<path transform="translate(0,0)" fill="rgb(0,0,0)" d="M 1839.27 149.364 C 1839.74 149.294 1840.21 149.238 1840.69 149.197 C 1865.88 146.878 1874.28 157.176 1876.2 180.673 C 1906.92 180.593 1946.57 162.947 1976.26 171.217 C 1994.22 176.221 2001.85 215.617 1994.12 229.871 C 1976.96 261.5 1925.26 246.154 1895.62 258.924 C 1885.56 263.256 1868.17 272.261 1874 290.55 C 1892.01 312.875 1949.65 293.435 1974.97 305.271 C 1982.75 308.907 1988.22 312.921 1991.52 320.91 C 1995.93 331.09 1994.65 363.478 1991.15 372.782 C 1981.97 397.213 1934.35 387.43 1913.29 389.946 C 1901.93 390.203 1894.26 392.555 1883.56 396.316 C 1865.16 399.132 1845.83 435.109 1857.19 451.078 C 1887.53 493.734 1970.92 453.402 1996.32 517.153 C 2005.83 541.017 2005.69 564.262 1996.76 587.474 C 1976.64 629.453 1930.18 645.063 1887.2 643.199 C 1855.56 641.439 1819.63 635.017 1834.64 593.899 C 1835.45 588.692 1838.4 584.962 1840.45 580.847 C 1852.24 557.2 1900.84 575.559 1910.14 562.117 C 1910.04 556.581 1900.36 554.808 1895.87 554.693 C 1827.21 552.935 1748.77 527.778 1754.43 443.346 C 1757.27 400.997 1776.43 383.167 1805.62 357.422 C 1771.61 340.148 1759.86 310.317 1772.02 273.182 C 1777.57 256.207 1791.71 243.751 1805.57 233.2 C 1792.01 226.238 1780.6 216.456 1778.72 200.369 C 1777.61 190.681 1780.43 180.954 1786.54 173.357 C 1798.74 158.014 1820.51 151.458 1839.27 149.364 z"/>
<path transform="translate(0,0)" fill="rgb(209,223,16)" d="M 1795.07 191.756 C 1795.23 191.376 1795.4 191 1795.58 190.626 C 1800.77 179.661 1811.55 172.889 1822.75 169.314 C 1834.4 165.593 1854.57 158.604 1859.79 174.217 C 1859.44 179.89 1859.4 184.144 1859.34 189.733 C 1875.5 204.651 1899.97 192.427 1918.43 191.273 C 1937.05 190.109 1975.37 172.523 1978.28 200.724 C 1982.55 214.157 1983.35 228.5 1966.38 232.395 C 1932.89 240.079 1883.08 231.321 1861.61 265.072 C 1853.84 277.372 1857.14 286.683 1859.27 298.894 C 1884.38 338.289 1973.56 299.371 1977.63 331.785 C 1978.14 340.637 1979.99 361.266 1974.43 368.217 C 1971.19 372.262 1962.52 373.587 1957.42 373.716 C 1921.21 374.635 1880.69 368.6 1853.07 398.015 C 1844.06 407.604 1837.74 423.644 1837.98 436.932 C 1838.08 442.52 1840.43 451.173 1841.57 456.999 C 1843.25 460.115 1845.63 464.745 1847.88 467.317 C 1881.81 506.061 1952.24 471.807 1979.52 520.637 C 1981.02 523.321 1982.82 527.556 1983.45 530.587 C 1988.99 543.801 1988.07 565.696 1982.53 578.812 C 1965.02 620.222 1913.28 631.177 1872.86 625.845 C 1866.29 624.979 1853.1 622.376 1848.26 617.47 C 1844.81 611.023 1846.62 610.251 1847.41 604.15 C 1853.54 557.341 1916.14 607.737 1926.65 561.834 C 1925.8 558.174 1925.34 553.371 1922.97 550.298 C 1910.39 533.969 1873.04 539.259 1852.41 534.101 C 1823.63 526.904 1799.58 518.726 1781.79 492.957 C 1773.75 481.323 1767.91 458.153 1770.68 445.251 C 1772.55 401.85 1809.75 367.686 1848.04 352.761 C 1836.91 349.201 1826.93 349.554 1815.01 344.17 C 1791.05 333.342 1783.4 319.606 1783.75 294.281 C 1784.33 289.032 1785.64 283.889 1787.64 279.002 C 1798.94 251.257 1826.97 238.198 1852.72 227.467 C 1851.52 221.44 1794.51 233.428 1795.07 191.756 z"/>
<path transform="translate(0,0)" fill="rgb(252,251,198)" d="M 1841.57 456.999 C 1843.25 460.115 1845.63 464.745 1847.88 467.317 C 1881.81 506.061 1952.24 471.807 1979.52 520.637 C 1981.02 523.321 1982.82 527.556 1983.45 530.587 C 1980.37 529.318 1970.52 509.455 1953.18 503.082 C 1919.89 490.854 1875.86 500.818 1849.6 475.512 C 1846.02 472.07 1841.34 462.118 1841.57 456.999 z"/>
<path transform="translate(0,0)" fill="rgb(252,251,198)" d="M 1859.34 189.733 C 1875.5 204.651 1899.97 192.427 1918.43 191.273 C 1937.05 190.109 1975.37 172.523 1978.28 200.724 C 1976.12 198.98 1974.69 195.76 1972.69 193.7 C 1964.34 185.07 1892.67 202.754 1875.82 202.108 C 1871.07 201.926 1864.5 201.171 1861.17 197.401 C 1859.18 195.146 1859.23 192.586 1859.34 189.733 z"/>
<path transform="translate(0,0)" fill="rgb(252,251,198)" d="M 1848.04 352.761 C 1849.76 355.714 1849.84 354.804 1849.28 357.556 C 1844.3 362.158 1835.19 365.449 1828.93 368.88 C 1806.65 381.075 1789.18 400.839 1778.81 423.925 C 1776.15 429.855 1775.38 441.126 1772.12 445.902 L 1770.68 445.251 C 1772.55 401.85 1809.75 367.686 1848.04 352.761 z"/>
<path transform="translate(0,0)" fill="rgb(252,251,198)" d="M 1977.63 331.785 C 1958.09 312.854 1886.31 334.983 1864.26 310.479 C 1861.3 307.189 1859.09 303.422 1859.27 298.894 C 1884.38 338.289 1973.56 299.371 1977.63 331.785 z"/>
<path transform="translate(0,0)" fill="rgb(252,251,198)" d="M 1926.65 561.834 L 1928.5 562.64 C 1929.57 566.727 1928.68 573.91 1926.17 577.85 C 1921.85 584.609 1917.58 584.384 1911.69 586.577 C 1897.26 591.947 1863.57 581.765 1855.63 594.348 C 1852.65 599.054 1851.11 612.847 1848.26 617.47 C 1844.81 611.023 1846.62 610.251 1847.41 604.15 C 1853.54 557.341 1916.14 607.737 1926.65 561.834 z"/>
<path transform="translate(0,0)" fill="url(#Gradient1)" d="M 1852.72 227.467 C 1855.69 229.627 1855.6 228.821 1856.15 231.632 C 1853.44 234.676 1842.25 238.123 1838.19 240.066 C 1817.91 249.759 1796.75 264.002 1789.7 286.464 C 1788.71 289.612 1788.32 292.218 1785.74 294.195 L 1783.75 294.281 C 1784.33 289.032 1785.64 283.889 1787.64 279.002 C 1798.94 251.257 1826.97 238.198 1852.72 227.467 z"/>
<path transform="translate(0,0)" fill="rgb(252,251,198)" d="M 1795.07 191.756 C 1795.23 191.376 1795.4 191 1795.58 190.626 C 1800.77 179.661 1811.55 172.889 1822.75 169.314 C 1834.4 165.593 1854.57 158.604 1859.79 174.217 L 1858.48 175.655 L 1858.28 175.42 C 1848.37 164.143 1814.2 176.566 1804.78 185.292 C 1801.55 188.28 1800.48 194.645 1797.18 196.343 C 1795.5 194.653 1795.51 194.068 1795.07 191.756 z"/>
<path transform="translate(0,0)" fill="rgb(0,0,0)" d="M 1048.89 229.234 C 1073.26 228.233 1097.92 228.912 1122.32 228.904 C 1139.56 228.898 1157.48 227.858 1174.61 229.27 C 1180.01 229.715 1185.82 230.851 1190.79 233.047 C 1196.18 235.428 1199.2 240.078 1201.22 245.462 C 1205.49 256.905 1207.22 286.748 1201.91 297.803 C 1197.96 306.019 1189.43 308.47 1181.47 311.121 C 1186.79 326.784 1193.42 342.22 1199.5 357.609 C 1208.06 379.298 1216.43 401.121 1225.8 422.473 C 1237.74 384.721 1251.64 347.56 1263.64 309.794 C 1258.65 308.011 1253.5 306.33 1248.66 304.179 C 1244.57 302.361 1240.64 298.972 1239.08 294.694 C 1235.58 285.062 1239.29 252.171 1243.66 242.94 C 1245.81 238.399 1249.04 234.339 1253.93 232.643 C 1266.73 228.207 1345.82 228.683 1362.34 230.483 C 1367.97 231.097 1373.92 232.421 1379.03 234.902 C 1383.9 237.261 1386.53 241.395 1388.19 246.4 C 1391.54 256.468 1391.92 291.89 1387.19 301.209 C 1383.78 307.927 1378.31 310.117 1371.61 312.255 C 1368.99 312.672 1366.48 313.341 1363.93 314.046 C 1358.53 317.908 1354.63 334.43 1352.3 340.809 C 1339.36 376.291 1325.72 411.553 1312.32 446.87 C 1301.76 474.725 1291.58 505.493 1276.88 531.445 C 1273.47 537.461 1268.83 544.8 1262.31 547.768 C 1252.25 552.352 1180.01 552.561 1169.65 548.68 C 1163.89 546.518 1159.67 542.278 1156.45 537.123 C 1144.79 518.425 1132.04 484.772 1122.74 463.708 C 1100.91 413.788 1078.75 364.017 1056.25 314.398 C 1049.35 312.989 1040.84 312.041 1034.88 308.07 C 1030.09 304.873 1028.33 297.996 1027.32 292.657 C 1024.9 279.9 1024.06 249.617 1031.48 238.798 C 1035.95 232.284 1041.49 230.585 1048.89 229.234 z"/>
<path transform="translate(0,0)" fill="rgb(209,223,16)" d="M 1042.73 256.35 C 1042.81 252.987 1042.52 249.889 1044.51 247.193 C 1050.61 242.34 1148.53 246.025 1163.57 244.958 C 1174.39 244.191 1185.5 243.536 1188.76 256.126 C 1189.94 289.613 1195.49 294.596 1160.03 299.446 L 1207.03 418.695 C 1210.26 426.714 1223.03 459.696 1226.74 466.173 C 1245.74 414.836 1266.51 355.611 1282.59 303.45 C 1282.62 295.737 1260.23 294.032 1253.15 288.948 C 1252.19 281.511 1253.79 268.834 1254.57 261.123 C 1255.08 257.332 1255.44 251.67 1258.06 248.696 C 1259.89 246.614 1262.76 246.521 1265.39 246.31 C 1277.35 245.35 1366.07 244.127 1370.76 248.258 C 1374.46 251.509 1374.2 256.214 1374.46 260.757 C 1374.18 290.162 1382.47 295.111 1350.1 301.231 C 1337.49 330.675 1270.71 526.097 1254.9 533.251 C 1247.89 536.422 1181.19 536.191 1174.99 533.738 C 1171.23 532.251 1167.91 525.218 1166.12 521.795 C 1152.45 495.728 1141.46 467.532 1129.49 440.603 L 1067.15 300.069 C 1033.6 294.688 1042.64 287.62 1042.73 256.35 z"/>
<path transform="translate(0,0)" fill="rgb(252,251,198)" d="M 1282.59 303.45 C 1287.19 306.146 1284.52 313.555 1283.14 317.838 C 1270.57 356.56 1257.73 395.238 1244.22 433.643 C 1242.04 439.835 1231.92 470.002 1229.13 472.714 L 1227.86 472.231 C 1226.76 469.521 1226.51 469.058 1226.74 466.173 C 1245.74 414.836 1266.51 355.611 1282.59 303.45 z"/>
<path transform="translate(0,0)" fill="rgb(252,251,198)" d="M 1042.73 256.35 C 1042.81 252.987 1042.52 249.889 1044.51 247.193 C 1050.61 242.34 1148.53 246.025 1163.57 244.958 C 1174.39 244.191 1185.5 243.536 1188.76 256.126 C 1186.33 254.109 1183.1 251.234 1179.87 251.063 C 1150.42 249.504 1120.85 250.679 1091.35 250.142 C 1078.01 249.899 1064.44 249.905 1051.12 250.309 C 1046.98 250.434 1045.12 253.352 1042.73 256.35 z"/>
<path transform="translate(0,0)" fill="rgb(252,251,198)" d="M 1254.57 261.123 C 1255.08 257.332 1255.44 251.67 1258.06 248.696 C 1259.89 246.614 1262.76 246.521 1265.39 246.31 C 1277.35 245.35 1366.07 244.127 1370.76 248.258 C 1374.46 251.509 1374.2 256.214 1374.46 260.757 C 1367.66 250.003 1365.95 250.598 1353.36 250.927 C 1323.25 251.713 1292.3 249.277 1262.47 251.817 C 1259.91 252.035 1257.98 258.88 1257.39 260.918 L 1254.57 261.123 z"/>
<path transform="translate(0,0)" fill="rgb(0,0,0)" d="M 787.422 57.4076 C 826.76 53.2398 831.839 67.7594 831.941 104.436 C 831.969 114.731 831.967 125.539 831.967 135.864 L 832.138 219.368 C 832.417 300.826 833.841 383.67 833.116 464.961 C 854.144 469.788 861.093 472.645 862.985 494.619 C 868.361 557.023 847.726 550.969 796.675 550.948 L 722.427 550.852 C 698.409 550.737 688.577 546.725 686.014 520.564 C 684.832 508.503 682.464 487.501 688.175 476.491 C 692.396 468.354 709.254 464.774 717.467 462.457 C 716.519 426.751 717.13 388.081 716.976 352.112 L 715.652 162.687 C 697.629 159.089 678.457 157.717 678.187 134.723 C 677.983 117.404 674.013 90.3401 685.175 75.7763 C 690.332 69.0486 701.602 67.6084 709.451 66.3061 C 735.325 62.0126 761.306 59.5867 787.422 57.4076 z"/>
<path transform="translate(0,0)" fill="rgb(209,223,16)" d="M 707.065 83.11 C 724.097 82.3437 797.818 67.9233 810.544 74.4653 C 813.324 76.7601 813.773 79.5739 814.779 83.02 C 817.676 124.234 814.85 473.079 818.78 478.487 C 830.105 480.195 845.344 479.682 847.799 493.053 C 846.901 504.957 850.441 525.69 842.573 532.655 C 838.371 534.124 834.164 534.758 829.729 535.029 C 815.011 535.928 714.312 537.184 706.236 533.181 C 703.881 532.014 702.474 528.46 701.767 526.089 C 699.516 518.532 699.423 508.071 699.92 500.169 C 697.312 476.146 714.574 479.819 733.458 474.524 C 731.583 466.712 733.128 438.498 732.971 428.588 C 731.501 336.129 734.197 242.37 731.486 150.024 C 722.302 146.922 702.315 145.525 696.37 139.641 C 691.251 134.574 693.543 105.965 693.754 97.1314 C 695.131 86.6156 697.062 85.7495 707.065 83.11 z"/>
<path transform="translate(0,0)" fill="rgb(252,251,198)" d="M 707.065 83.11 C 724.097 82.3437 797.818 67.9233 810.544 74.4653 C 813.324 76.7601 813.773 79.5739 814.779 83.02 C 808.258 77.1499 799.909 78.4028 791.064 78.7993 C 762.028 80.1008 733.369 85.8047 704.665 89.2625 C 706.954 87.0971 707.999 87.9546 709.397 85.3838 L 707.065 83.11 z"/>
<path transform="translate(0,0)" fill="rgb(252,251,198)" d="M 733.458 474.524 C 735.283 478.07 735.535 477.195 734.901 480.422 C 728.296 485.278 712.154 483.425 705.787 488.892 C 703.417 490.928 702.649 497.06 699.92 500.169 C 697.312 476.146 714.574 479.819 733.458 474.524 z"/>
<path transform="translate(0,0)" fill="rgb(252,251,198)" d="M 818.78 478.487 C 830.105 480.195 845.344 479.682 847.799 493.053 C 839.167 485.383 821.669 485.792 818.134 480.478 L 818.78 478.487 z"/>
<path transform="translate(0,0)" fill="rgb(252,251,198)" d="M 693.754 97.1314 C 695.131 86.6156 697.062 85.7495 707.065 83.11 L 709.397 85.3838 C 707.999 87.9546 706.954 87.0971 704.665 89.2625 C 698.835 91.3058 698.225 92.7003 693.754 97.1314 z"/>
<path transform="translate(0,0)" fill="rgb(0,0,0)" d="M 969.288 220.416 C 970.148 220.317 971.011 220.259 971.876 220.241 C 979.455 220.099 987.067 220.97 992.746 226.534 C 998.648 232.317 999.836 240.114 1000.82 247.98 C 1003.63 270.56 1001.77 296.156 1001.9 319.108 L 1002.59 464.978 C 1010.64 467.167 1020.24 469.032 1026.36 475.085 C 1034.21 482.841 1034.08 495.125 1034.17 505.377 C 1034.28 517.092 1035.32 534.503 1026.19 543.446 C 1021.9 547.645 1013.92 549.345 1008.15 550.13 C 995.515 551.847 982.014 550.952 969.246 550.95 L 900.75 550.872 C 895.064 550.368 889.483 549.819 884.208 547.482 C 879.296 545.307 873.992 541.129 872.078 535.973 C 868.375 525.995 865.998 484.643 870.388 475.715 C 873.316 469.761 883.901 467.392 889.788 465.402 C 887.487 414.211 888.147 362.492 887.777 311.24 C 880.185 309.641 870.61 308.601 864.429 303.56 C 860.487 300.345 858.498 295.45 857.973 290.483 C 856.788 279.276 855.359 246.279 862.337 237.969 C 865.321 234.416 870.838 232.533 875.182 231.39 C 885.889 228.574 897.828 227.992 908.815 226.69 C 928.944 224.306 949.062 221.816 969.288 220.416 z"/>
<path transform="translate(0,0)" fill="rgb(209,223,16)" d="M 873.133 255.272 C 873.567 252.984 874.97 247.755 877.554 247.429 C 896.894 244.987 965.788 232.695 980.723 237.469 C 983.209 239.395 983.327 240.04 984.151 243.141 C 985.155 246.409 984.931 249.187 985.194 251.63 C 987.621 274.156 983.727 472.816 988.123 478.321 C 1000.46 481.036 1016.53 480.304 1018.25 494.955 C 1017.97 505.42 1020.44 526.117 1013.86 532.551 C 1009.83 534.067 1005.79 534.7 1001.5 534.994 C 988.498 535.888 896.129 536.833 889.301 532.936 C 886.828 531.524 885.632 527.086 885.067 524.427 C 883.612 517.579 883.424 508.076 884.079 501.145 C 883.849 499.345 883.654 497.541 883.495 495.734 C 881.875 476.608 898.93 484.449 905.085 477.126 C 904.89 420.343 903.175 360.915 903.859 304.546 C 903.842 303.934 903.816 303.323 903.781 302.713 C 903.087 290.996 884.035 299.203 875.795 291.977 C 871.629 285.597 873.056 263.651 873.133 255.272 z"/>
<path transform="translate(0,0)" fill="rgb(252,251,198)" d="M 873.133 255.272 C 873.567 252.984 874.97 247.755 877.554 247.429 C 896.894 244.987 965.788 232.695 980.723 237.469 C 983.209 239.395 983.327 240.04 984.151 243.141 L 982.881 244.091 C 966.874 237.283 901.501 250.305 881.434 252.051 C 879.558 252.215 876.023 257.345 874.818 259.087 C 873.825 257.446 873.634 257.12 873.133 255.272 z"/>
<path transform="translate(0,0)" fill="rgb(252,251,198)" d="M 905.085 477.126 C 905.528 474.262 905.742 473.154 906.686 470.426 L 908.881 469.738 C 909.751 493.67 900.327 478.83 887.941 490.807 C 884.915 493.732 886.491 498.056 884.079 501.145 C 883.849 499.345 883.654 497.541 883.495 495.734 C 881.875 476.608 898.93 484.449 905.085 477.126 z"/>
<path transform="translate(0,0)" fill="rgb(252,251,198)" d="M 988.123 478.321 C 1000.46 481.036 1016.53 480.304 1018.25 494.955 C 1018.05 494.726 1017.86 494.497 1017.66 494.269 L 1017.3 493.887 C 1009.04 484.951 990.982 486.568 987.303 480.96 L 988.123 478.321 z"/>
<path transform="translate(0,0)" fill="rgb(0,0,0)" d="M 929.24 54.4003 C 947.489 52.4162 970.149 61.5308 983.812 73.3224 C 996.935 84.5398 1004.92 100.617 1005.94 117.851 C 1008.85 161.163 978.197 187.893 936.934 190.539 C 915.434 190.098 899.475 186.14 882.966 172.575 C 848.112 143.934 853.921 83.0186 894.962 63.0525 C 907.31 57.0454 916.1 55.4464 929.24 54.4003 z"/>
<path transform="translate(0,0)" fill="rgb(209,223,16)" d="M 875.883 123.256 C 873.18 59.6359 968.228 53.0312 987.331 104.856 C 992.48 115.581 991.147 130.806 987.425 141.824 C 972.352 186.453 899.391 185.276 880.386 144.778 C 877.726 139.111 875.214 129.576 875.883 123.256 z"/>
<path transform="translate(0,0)" fill="rgb(252,251,198)" d="M 875.883 123.256 C 873.18 59.6359 968.228 53.0312 987.331 104.856 L 986.274 104.977 C 981.749 98.0711 977.921 91.2954 971.172 86.5503 C 947.248 69.7285 924.231 69.9412 899.551 83.606 C 881.933 93.3611 880.836 119.743 875.883 123.256 z"/>
</svg>