<svg xmlns="http://www.w3.org/2000/svg" width="1536" height="505"><path fill="#FDFDFD" d="M0 0h1536v505H0z" id="svg-layer-0" style="pointer-events: all;"/><path fill="#CFDC0F" d="m281.5 20.688 2.789.006C323.515 20.841 362.045 28.73 397 47l2.384 1.244C408.758 53.186 417.679 58.394 426 65l2.688 2.11c6.08 4.87 11.837 10.039 17.539 15.34a198 198 0 0 0 6.836 5.987c44.122 38.483 66.581 98.933 70.665 155.98 1.411 25.445-1.516 52.037-9.054 76.4q-.662 2.143-1.293 4.295C507.387 345.56 498.21 365.52 486 383l-1.323 1.906c-12.57 17.954-26.504 32.735-44.045 45.856a236 236 0 0 0-4.816 3.77c-41.107 32.766-95.673 46.68-147.441 46.718l-2.9.003c-15.039-.01-29.629-.668-44.475-3.253l-2.571-.422c-43.255-7.212-82.977-25.846-115.257-55.594-1.91-1.745-3.862-3.403-5.86-5.046-3.863-3.299-7.04-7.066-10.312-10.938l-2.5-2.805C97.007 394.723 90.854 385.665 85 376l-1.521-2.503C60.414 335.225 50.01 291.607 51 247l.022-1.974C51.549 207.182 62.066 168.743 81 136l1.458-2.52c8.532-14.586 17.917-28.045 29.984-39.926 1.761-1.757 3.393-3.59 4.996-5.492C132.674 70.496 151.568 57.733 172 47l2.12-1.118c19.15-10.033 38.96-16.798 60.13-21.132l2.212-.458c14.977-2.893 29.82-3.669 45.038-3.605M1189 169l2.384.65c29.404 8.31 56.251 26.503 71.897 53.14 6.6 12.329 8.696 25.916 9.266 39.737l.12 2.737c.462 10.97.687 21.946.896 32.923l.064 3.23c.314 15.863.514 31.717.373 47.583l2.007.18c10.35.97 19 2.42 25.993 10.82 2.953 5.915 2.335 12.273 2.316 18.72-.003 2.207.02 4.414.045 6.622q.004 2.124.002 4.248l.01 3.87c-.52 4.934-2.354 8.193-5.31 12.103-14.235 11.329-35.56 11.63-52.962 11.677-2.135.01-4.269.041-6.404.072-15.352.119-31.97-1.275-43.697-12.312-4-4.54-4-4.54-4-7l-2.422 1.977c-22.486 18.037-48.406 21.606-76.613 18.562-23.668-3.2-42.684-13.421-57.867-31.848-12.106-16.788-13.95-39.367-11.41-59.316 3.725-20.814 13.604-36.17 30.713-48.49 21.003-14.318 46.735-19.269 71.599-21.885l3.668-.398c8.764-.806 17.54-.697 26.332-.602-1.547-6.363-2.967-11.503-8-16-16.607-8.509-37.652-6.235-55-1-4.213 1.54-8.261 3.41-12.32 5.313-8.96 4.186-17.829 7.315-27.68 4.687-7-2.908-11.183-7.901-14.226-14.765-1.24-3.183-2.395-6.386-3.524-9.61l-1.207-3.29c-5.78-16.22-5.78-16.22-2.094-24.437 7.831-14.148 25.743-20.242 40.45-24.496 5.832-1.62 11.703-3.041 17.601-4.402l2.276-.552c23.782-5.591 53.26-4.911 76.724 1.552M1400.078 115.465c6.25 4.992 6.83 11.99 7.922 19.535 8.369-.96 16.689-2.058 24.988-3.508 29.069-5.064 29.069-5.064 39.324-5.117.696-.01 1.392-.02 2.11-.032 6.13.174 11.413 2.612 15.828 6.782 6.656 10.935 9.41 24.26 6.75 36.875-1.745 5.744-4.755 9.121-9.512 12.676-7.89 4.199-16.005 5.032-24.8 5.824q-3.745.372-7.489.754l-3.701.375c-31.941 3.385-31.941 3.385-40.498 11.371h-2l-.937 2.375C1407 206 1407 206 1406 208c-.168 2.023-.168 2.023-.187 4.375l-.043 2.336c.266 2.648.782 4.053 2.23 6.289 7.09 4.031 14.65 4.58 22.625 4.54 1.068.01 2.136.023 3.237.035 3.38.035 6.758.044 10.138.05q5.07.023 10.138.072 3.137.03 6.275.027c11.186.08 22.211 1.12 30.587 9.276 4.778 7.026 4.615 14.065 4.521 22.263-.021 2.233 0 4.462.026 6.694.018 9.231-.521 15.926-7.297 22.856-6.775 4.56-12.725 5.627-20.691 5.628l-2.683.04c-2.813.041-5.625.063-8.438.082-43.256.373-43.256.373-56.438 13.437-7.067 8.77-8.907 16.827-8 28 1.314 5.456 4.281 10.205 8.988 13.313 11.31 6.219 24.317 7.09 36.95 8.125 20.586 1.856 38.547 5.683 53.062 21.562 2.41 3.182 4.286 6.4 6 10l1.176 2.441c6.496 15.472 6.164 33.786.637 49.434-7.43 17.516-21.474 29.173-38.563 36.875-10.437 4.097-22.03 6.827-33.25 7.25l-3.047.156c-14.85.41-33.307-1.027-45.515-10.281-4.223-4.084-5.339-8.083-5.438-13.875.701-10.208 3.431-20.775 11-28 6.28-3.899 11.623-5.104 18.996-5.246l4.131-.1q3.236-.072 6.47-.13c2.092-.04 4.183-.092 6.274-.145l3.78-.076c3.197-.29 5.467-.934 8.349-2.303-.125-1.875-.125-1.875-1-4-5.518-2.543-11.35-2.472-17.312-2.812-30.85-2.17-60.732-9.168-82.688-32.188-14.043-16.748-16.633-36.862-15-58 2.743-21.342 16.035-40.361 32.563-53.625A386 386 0 0 1 1353 269a151 151 0 0 0-6.586-4.762c-10.795-7.453-16.597-15.738-20.031-28.539-2.182-15.384-.356-29.938 8.484-42.988 4.855-6.171 10.57-12.364 17.133-16.711h2v-2l-2.5-.562c-7.817-3.211-12.09-8.573-15.59-16.106-2.887-7.399-2.478-14.425 0-21.883 3.884-8.728 12.32-14.652 20.956-18.22 13.088-4.93 30.335-9.52 43.212-1.764M793.917 171.725l2.979-.015c3.24-.014 6.48-.013 9.721-.01l6.778-.014q7.098-.01 14.197-.002c6.055.006 12.11-.01 18.164-.034 4.666-.015 9.33-.016 13.996-.013q3.348 0 6.696-.015c3.125-.013 6.25-.006 9.376.006l2.774-.023c7.006.057 12.647 1.13 18.215 5.708 6.534 8.028 6.453 15.904 6.537 25.794q.025 2.132.082 4.265c.388 14.495.388 14.495-4.042 20.24-1.863 1.86-3.545 2.971-6.015 3.888-.755.3-1.51.598-2.29.906C889 233 889 233 886 233l9.3 23.248a36525 36525 0 0 1 15.402 38.546l2.505 6.272 1.421 3.561A519 519 0 0 0 919 315c3.422-8.189 6.301-16.544 9.133-24.95l1.448-4.278a8412 8412 0 0 0 3.01-8.913 8723 8723 0 0 1 3.847-11.377l2.98-8.815 1.418-4.195q.993-2.933 1.98-5.87c.375-1.108.75-2.217 1.135-3.36 1.099-3.396 2.088-6.805 3.049-10.242l-2.922-1.137-3.828-1.55c-.634-.245-1.268-.49-1.922-.74-4.371-1.8-7.032-3.41-9.328-7.573-1.891-7.781-.705-15.842.188-23.687l.345-3.588c.877-7.941 2.015-13.445 7.967-19.1 4.574-2.973 9.007-2.778 14.339-2.786l2.381-.015q3.896-.021 7.792-.027l5.433-.017q5.698-.015 11.397-.02c4.85-.006 9.7-.03 14.552-.058 3.743-.019 7.486-.024 11.229-.026q2.68-.004 5.362-.024c21.717-.149 21.717-.149 28.452 6.473 5.787 6.627 4.872 17.182 4.813 25.375l.023 3.262c-.041 17.08-.041 17.08-5.382 22.984-3.524 2.337-7.733 2.984-11.832 3.809-6.4 3.024-8.252 12.278-10.563 18.613l-.968 2.618q-1.02 2.765-2.037 5.533c-1.432 3.9-2.874 7.796-4.316 11.692l-2.166 5.86c-4.09 11.068-8.28 22.097-12.487 33.123a3204 3204 0 0 0-4.3 11.384C958.144 405.928 958.144 405.928 946 412c-3.394 1.087-6.574 1.139-10.126 1.161l-3.753.03-4.047.012-4.17.017q-4.368.015-8.738.02c-3.719.006-7.437.03-11.156.058-2.871.019-5.743.024-8.614.026q-2.055.004-4.11.024c-13.503.12-13.503.12-19.286-3.348-1.874-2.153-3.203-3.955-4.625-6.375l-1.259-2.084c-6.021-10.364-10.594-21.501-15.352-32.483-1.792-4.131-3.611-8.25-5.436-12.367a6440 6440 0 0 1-14.793-33.625l-.854-1.957-.852-1.954a4586 4586 0 0 0-17.641-39.905l-1.102-2.46c-3.355-7.499-6.715-14.994-10.129-22.466l-1.292-2.835a870 870 0 0 0-2.242-4.873c-1.605-3.515-2.884-6.776-3.423-10.616l-2.125-.297c-14.188-2.236-14.188-2.236-18.812-8.203-2.063-4.853-2.236-9.32-2.266-14.555l-.017-2.36q-.014-2.47-.02-4.938c-.01-2.506-.041-5.012-.072-7.518q-.01-2.404-.016-4.809l-.038-2.254c.027-6.239 1.707-10.094 5.678-14.816 5.634-4.717 11.605-4.544 18.605-4.525" id="svg-layer-1" style="pointer-events: all;"/><path fill="#CFDC10" d="m597.188 42.688 3.115-.088c6.422-.054 11.38.604 16.697 4.4 8.377 9.282 7.445 22.904 7.432 34.613l.031 5.296c.028 4.795.037 9.59.043 14.384.01 5.122.036 10.245.06 15.367q.058 13.029.088 26.057c.028 11.894.073 23.788.124 35.683.238 56.866.265 113.733.222 170.6l1.881.407 2.463.54c.807.175 1.613.35 2.444.532 5.401 1.273 9.183 3.228 12.65 7.584 2.44 4.588 2.735 8.337 2.765 13.421l.017 2.224q.014 2.33.02 4.66c.01 2.36.04 4.718.072 7.077q.01 2.27.016 4.54l.038 2.115c-.029 6.293-1.629 10.716-5.553 15.65-6.44 5.152-12.933 5.692-20.866 5.638l-2.95.016c-3.197.013-6.394.005-9.59-.006q-3.352.003-6.702.01-7.01.005-14.02-.017c-5.98-.017-11.958-.007-17.936.01-4.61.012-9.22.008-13.831 0q-3.306-.004-6.612.008c-3.085.008-6.169-.004-9.253-.02l-2.737.018c-6.016-.06-12.07-.62-16.843-4.717-6.135-6.836-6.055-15.254-6.66-23.94l-.288-3.566c-1.21-16.612-1.21-16.612 2.038-23.497 6.156-6.787 12.32-8.2 21.437-10.687V122l-12-2c-7.107-1.731-11.021-3.748-15-10-1.74-5.218-1.394-10.826-1.558-16.294-.066-2.17-.144-4.34-.223-6.51-.764-22.9-.764-22.9 4.781-30.196 4.819-4.405 9.529-6.025 15.875-7.062l2.66-.472c21.553-3.651 43.794-6.57 65.653-6.779" id="svg-layer-2" style="pointer-events: all;"/><path fill="#FDFDFD" d="M315 117v3a103 103 0 0 1-6.562 5.25q-1.95 1.493-3.891 2.996l-1.881 1.453c-11.188 8.738-17.625 21.05-22.475 34.121L279 167l-.64 2.367C277 171 277 171 273.323 171.687q-2.316.176-4.637.313c-18.659 1.624-34.13 8.934-46.687 23-12.098 14.646-18.475 32.56-22 51l-.68 3.07c-6.251 32.115 1.067 67.628 18.43 95.055 12.95 18.702 30.204 31.665 52.793 36.18 20.833 3.583 40.083-1.403 57.332-13.285C346.733 352.617 356.178 330.932 360 308l.398-2.39c4.843-37.432-6.284-74.487-28.55-104.512C320.58 186.663 305.625 177.45 288 173c.236-11.789 7.85-23.823 16-32a134.4 134.4 0 0 1 15.313-11.055C322 128 322 128 322.875 124.75L323 122c4.85 1.33 8.421 3.465 12.313 6.563l1.717 1.352C367.234 154.069 380.143 191.979 386 229l.339 2.14c6.978 45.36 4.5 99.914-22.41 138.856A111 111 0 0 1 358 377l-1.926 2.133C337.524 398.688 312.06 405.22 286 406c-25.67.241-51.694-7.682-71-25l-2.746-2.46c-32.545-30.786-40.898-82.703-42.232-125.206-.722-42.377 4.664-89.671 35.307-121.706C234.065 103.63 279.502 103.754 315 117" id="svg-layer-3" style="pointer-events: all;"/><path fill="#CFDC10" d="M728.218 164.838c6.808-.296 12.566 1.187 17.657 5.725 5.757 8.108 5.59 18.126 5.637 27.656l.054 4.266c.049 3.864.078 7.728.104 11.592.024 3.253.058 6.506.093 9.759.436 41.718.333 83.444.237 125.164l2.465.56 3.25.768 3.214.747c4.418 1.33 8.056 3.409 11.071 6.925 2.556 5.094 3.383 8.831 3.398 14.621l.01 2.132a448 448 0 0 1-.017 4.435c-.016 2.24 0 4.48.02 6.72.024 16.46.024 16.46-5.598 22.404-6.61 3.967-12.296 5.134-19.856 5.076l-2.625.016c-2.84.013-5.68.005-8.52-.006q-2.98.003-5.961.01-6.233.005-12.467-.017c-5.313-.017-10.625-.007-15.938.01-4.1.012-8.201.008-12.302 0q-2.937-.004-5.875.008a928 928 0 0 1-8.226-.02l-2.425.018c-8.28-.093-14.658-2.589-20.618-8.407-4.599-6.788-3.446-17.138-3.722-25.077q-.09-2.424-.207-4.846a494 494 0 0 1-.278-7.046l-.12-2.169c-.128-5.133 1.09-7.924 4.327-11.862 2.254-1.46 2.254-1.46 4.563-2.375l2.316-.96C664 350 664 350 667 350l-2-116-14-4c-4.933-3.946-6.818-6.05-8-12-.362-4.476-.432-8.922-.391-13.409.016-2.087 0-4.172-.02-6.259-.027-15.193-.027-15.193 5.162-21.44 8.409-7.073 26.948-6.372 37.526-7.627 3.283-.39 6.565-.79 9.846-1.19a693 693 0 0 1 33.095-3.237" id="svg-layer-4" style="pointer-events: all;"/><path fill="#CFDC0F" d="M312.156 194.34 314 196l2.344 2.066c22.847 21.402 34.627 54.887 35.87 85.63.652 24.627-4.105 49.803-20.776 68.804A247 247 0 0 1 327 357l-1.633 1.7c-11.726 11.224-28.185 14.836-43.868 14.718-17.174-.516-33.229-8.463-45.499-20.418-18.612-20.16-27.749-46.817-29-74l-.16-3.27c-.692-27.77 6.925-57.933 26.11-78.78 21.836-22.081 55.78-21.876 79.206-2.61" id="svg-layer-5" style="pointer-events: all;"/><path d="m281.5 20.688 2.789.006C323.515 20.841 362.045 28.73 397 47l2.384 1.244C408.758 53.186 417.679 58.394 426 65l2.688 2.11c6.08 4.87 11.837 10.039 17.539 15.34a198 198 0 0 0 6.836 5.987c44.122 38.483 66.581 98.933 70.665 155.98 1.411 25.445-1.516 52.037-9.054 76.4q-.662 2.143-1.293 4.295C507.387 345.56 498.21 365.52 486 383l-1.323 1.906c-12.57 17.954-26.504 32.735-44.045 45.856a236 236 0 0 0-4.816 3.77c-41.107 32.766-95.673 46.68-147.441 46.718l-2.9.003c-15.039-.01-29.629-.668-44.475-3.253l-2.571-.422c-43.255-7.212-82.977-25.846-115.257-55.594-1.91-1.745-3.862-3.403-5.86-5.046-3.863-3.299-7.04-7.066-10.312-10.938l-2.5-2.805C97.007 394.723 90.854 385.665 85 376l-1.521-2.503C60.414 335.225 50.01 291.607 51 247l.022-1.974C51.549 207.182 62.066 168.743 81 136l1.458-2.52c8.532-14.586 17.917-28.045 29.984-39.926 1.761-1.757 3.393-3.59 4.996-5.492C132.674 70.496 151.568 57.733 172 47l2.12-1.118c19.15-10.033 38.96-16.798 60.13-21.132l2.212-.458c14.977-2.893 29.82-3.669 45.038-3.605M242 36l-2.356.39c-38.437 6.392-75.505 24.322-103.855 51.032a130 130 0 0 1-5.945 5.191c-2.23 1.872-4.102 3.616-5.969 5.825-2.16 2.548-4.33 5.077-6.566 7.558C104.632 120.2 94.777 136.154 86 153l-.979 1.859c-26.253 50.53-28.57 113.705-11.94 167.532 9.1 28.172 23.683 54.52 43.81 76.312 1.888 2.056 3.689 4.16 5.484 6.297 12.16 13.85 27.763 24.803 43.625 34l1.842 1.097C177.878 446.072 188.069 450.893 199 455l3.457 1.332c59.608 21.459 131.16 17.435 188.438-8.93A628 628 0 0 0 398 444l2.07-1.003c14.835-7.3 27.968-16.786 40.374-27.656a200 200 0 0 1 4.783-3.974c5.846-4.732 11.046-9.513 15.773-15.367l2-2.309c22.132-25.965 37.043-58.07 44.25-91.316l.458-2.092c2.807-13.85 3.675-27.75 3.604-41.846l-.006-2.362C511.09 207.022 495.992 158.485 465 120l-2.133-2.71C441.197 90.182 414.685 68.435 383 54l-2.168-.999c-30.701-13.982-63.373-20.47-97.02-20.313l-2.425.004c-13.327.044-26.256.919-39.387 3.308M1400.078 115.465c6.25 4.992 6.83 11.99 7.922 19.535 8.369-.96 16.689-2.058 24.988-3.508 29.069-5.064 29.069-5.064 39.324-5.117.696-.01 1.392-.02 2.11-.032 6.13.174 11.413 2.612 15.828 6.782 6.656 10.935 9.41 24.26 6.75 36.875-1.745 5.744-4.755 9.121-9.512 12.676-7.89 4.199-16.005 5.032-24.8 5.824q-3.745.372-7.489.754l-3.701.375c-31.941 3.385-31.941 3.385-40.498 11.371h-2l-.937 2.375C1407 206 1407 206 1406 208c-.168 2.023-.168 2.023-.187 4.375l-.043 2.336c.266 2.648.782 4.053 2.23 6.289 7.09 4.031 14.65 4.58 22.625 4.54 1.068.01 2.136.023 3.237.035 3.38.035 6.758.044 10.138.05q5.07.023 10.138.072 3.137.03 6.275.027c11.186.08 22.211 1.12 30.587 9.276 4.778 7.026 4.615 14.065 4.521 22.263-.021 2.233 0 4.462.026 6.694.018 9.231-.521 15.926-7.297 22.856-6.775 4.56-12.725 5.627-20.691 5.628l-2.683.04c-2.813.041-5.625.063-8.438.082-43.256.373-43.256.373-56.438 13.437-7.067 8.77-8.907 16.827-8 28 1.314 5.456 4.281 10.205 8.988 13.313 11.31 6.219 24.317 7.09 36.95 8.125 20.586 1.856 38.547 5.683 53.062 21.562 2.41 3.182 4.286 6.4 6 10l1.176 2.441c6.496 15.472 6.164 33.786.637 49.434-7.43 17.516-21.474 29.173-38.563 36.875-10.437 4.097-22.03 6.827-33.25 7.25l-3.047.156c-14.85.41-33.307-1.027-45.515-10.281-4.223-4.084-5.339-8.083-5.438-13.875.701-10.208 3.431-20.775 11-28 6.28-3.899 11.623-5.104 18.996-5.246l4.131-.1q3.236-.072 6.47-.13c2.092-.04 4.183-.092 6.274-.145l3.78-.076c3.197-.29 5.467-.934 8.349-2.303-.125-1.875-.125-1.875-1-4-5.518-2.543-11.35-2.472-17.312-2.812-30.85-2.17-60.732-9.168-82.688-32.188-14.043-16.748-16.633-36.862-15-58 2.743-21.342 16.035-40.361 32.563-53.625A386 386 0 0 1 1353 269a151 151 0 0 0-6.586-4.762c-10.795-7.453-16.597-15.738-20.031-28.539-2.182-15.384-.356-29.938 8.484-42.988 4.855-6.171 10.57-12.364 17.133-16.711h2v-2l-2.5-.562c-7.817-3.211-12.09-8.573-15.59-16.106-2.887-7.399-2.478-14.425 0-21.883 3.884-8.728 12.32-14.652 20.956-18.22 13.088-4.93 30.335-9.52 43.212-1.764M1350 136.75c-2.796 3.488-4.184 6.391-4.316 10.887.768 5.74 3.066 10.376 7.421 14.222 10.403 6.857 22.773 7.614 34.895 8.141-2.826 1.884-5.658 3.232-8.75 4.614-8.144 3.66-15.303 7.706-22.25 13.386l-2.2 1.707c-8.66 7.043-15.75 16.959-17.023 28.277-.65 8.925-.394 17.114 4.223 25.016l1.215 2.133c8.205 12.51 23.57 16.064 37.285 19.18l3.5.687-2.57 1.18c-22.7 10.826-40.66 26.645-50.82 50.02-4.921 14.363-5.04 32.921 1.39 46.8 8.053 16.367 22.117 26.772 39 33 11.413 3.869 22.65 6.525 34.688 7.453l3.165.245q3.127.235 6.257.43c8.916.633 19.002 1.673 25.89 7.872 3.276 5.496 3.265 8.967 2 15-.75 2.875-.75 2.875-2 5-2.312 1.188-2.312 1.188-5 2l-2.324 1.012c-6.558 2.422-14.062 2.035-20.985 1.941l-2.812-.034q-2.772-.043-5.543-.131c-5.232-.091-8.828.225-13.336 3.212-4.946 6.046-6.164 12.29-6.46 19.887.673 3.091 1.985 4.177 4.46 6.113 21.262 8.71 47.203 6.06 68.094-2.199 13.178-5.54 23.72-15.708 30.222-28.363 4.921-12.071 4.566-28.434.067-40.579-5.364-11.091-13.098-18.684-24.633-23.109-10.27-3.082-21.189-3.872-31.803-5.104-34.582-4.029-34.582-4.029-45.404-17.376-6.205-9.127-6.776-19.58-5.543-30.27 2.718-12.583 10.337-22.057 21-29 12.768-6.73 25.744-8.244 40-8.562q3.844-.112 7.688-.227l3.765-.107q7.276-.211 14.547-.541l2.277-.083c4.894-.236 8.972-.666 12.473-4.293 3.577-6.259 2.409-14.24 2.25-21.187l-.05-2.96c-.233-4.418-.535-6.49-3.263-10.102-4.012-2.893-7.292-3.064-12.167-3.172l-3.33-.082-3.592-.079q-3.789-.102-7.577-.209c-3.969-.106-7.937-.208-11.907-.295-3.84-.086-7.678-.195-11.516-.308l-3.537-.06c-9.792-.318-21.58-1.827-29.061-8.733-4.638-6.34-5.72-13.938-4.629-21.61 1.772-7.087 5.108-13.405 11.324-17.51 14.514-8.525 29.51-10.448 45.993-11.942q3.913-.36 7.825-.734 2.415-.232 4.829-.444c15.353-1.455 15.353-1.455 20.658-6.76 3.38-6.76 1.193-18.047-.953-24.95-1.358-2.66-2.72-4.157-5.047-6.05-11.698-2.038-24.452 1.325-35.937 3.438q-4.112.737-8.225 1.467-2.533.451-5.065.914c-21.983 3.99-21.983 3.99-31.773-.819-2.071-3.041-2.154-5.328-1.937-8.937.093-4.215-.261-6.722-3.063-10.063-12.467-6.234-32.985 2.571-42 11.75" id="svg-layer-6" style="pointer-events: all;"/><path d="M342.875 121.5A273 273 0 0 1 347 125l2.375 1.941C361.49 137.221 369.81 149.982 377 164l.952 1.83c8.038 15.63 12.874 32.117 16.36 49.295l.735 3.604c3.258 16.928 4.337 33.743 4.265 50.958l-.005 2.775c-.048 14.356-.624 28.399-3.307 42.538l-.52 2.805c-5.962 31.154-18.224 60.866-44.793 79.945-27.45 18.107-60.007 22.674-92.097 16.81-28.676-5.917-53.571-22.052-69.965-46.372C171.488 341.732 163.691 310.177 161 279l-.259-2.95c-3.6-45.016-2.656-99.85 26.259-137.05l1.193-1.575c16.265-21.276 39.632-34.036 66.096-37.921 31.006-3.768 63.43 3.064 88.586 21.996m-141.279 13.997C184.878 154.492 176.853 179.42 173 204l-.339 2.143c-7.809 51.976-2.475 115.358 28.3 159.681 1.92 2.497 3.923 4.844 6.039 7.176l2.453 2.734c19.739 20.894 46.863 29.156 74.922 30.192 25.213.574 49.878-6.624 68.625-23.926l2.133-1.855C380.486 356.829 387.425 315.578 389 283c1.785-49.766-6.794-105.785-41.713-143.644-6.47-6.805-13.725-13.348-22.287-17.356l-2 1-.234 2.277c-1.097 3.9-3.748 5.237-7.016 7.285-12.861 8.368-23.63 19.734-27.406 35.11-.281 2.203-.281 2.203-.344 5.328l2.86.848c26.087 8.017 42.518 25.272 55.074 48.914 16.478 32.688 20.215 71.547 8.832 106.39-7.488 21.428-21.795 36.573-42.016 46.536-17.242 7.475-37.112 7.52-54.75 1.312-9.714-3.847-18.268-8.932-26-16l-1.844-1.602c-5.272-4.864-9.19-10.784-13.085-16.759-.967-1.48-1.96-2.946-2.954-4.409-17.632-27.634-19.717-65.775-13.308-97.054 5.157-23.154 16.11-45.351 36.035-59.145 12.659-7.862 25.613-9.79 40.156-11.031l.848-2.133c8.658-21.325 19.189-36.5 38.152-49.867-2.725-3.609-6.654-4.397-10.812-5.562l-2.327-.656c-35.055-9.56-75.505-4.747-101.265 22.715m29.685 63.464c-19.638 23.012-26.082 54.758-24.004 84.312 1.8 21.33 8.11 42.248 20.723 59.727l2.02 2.8c10.24 13.34 26.96 24.892 43.98 27.2 17.589 1.418 34.477-.822 48.688-12.14A152 152 0 0 0 330 354l1.676-1.64c16.778-17.909 21.253-44.738 20.61-68.383-.38-8.118-1.605-16.034-3.286-23.977l-.472-2.24c-4.871-22.033-15.74-42.645-31.528-58.76l-2.008-2.117c-10.549-10.309-25.924-16.606-40.555-17.133-16.493.25-32.123 6.904-43.156 19.21M793.917 171.725l2.979-.015c3.24-.014 6.48-.013 9.721-.01l6.778-.014q7.098-.01 14.197-.002c6.055.006 12.11-.01 18.164-.034 4.666-.015 9.33-.016 13.996-.013q3.348 0 6.696-.015c3.125-.013 6.25-.006 9.376.006l2.774-.023c7.006.057 12.647 1.13 18.215 5.708 6.534 8.028 6.453 15.904 6.537 25.794q.025 2.132.082 4.265c.388 14.495.388 14.495-4.042 20.24-1.863 1.86-3.545 2.971-6.015 3.888-.755.3-1.51.598-2.29.906C889 233 889 233 886 233l9.3 23.248a36525 36525 0 0 1 15.402 38.546l2.505 6.272 1.421 3.561A519 519 0 0 0 919 315c3.422-8.189 6.301-16.544 9.133-24.95l1.448-4.278a8412 8412 0 0 0 3.01-8.913 8723 8723 0 0 1 3.847-11.377l2.98-8.815 1.418-4.195q.993-2.933 1.98-5.87c.375-1.108.75-2.217 1.135-3.36 1.099-3.396 2.088-6.805 3.049-10.242l-2.922-1.137-3.828-1.55c-.634-.245-1.268-.49-1.922-.74-4.371-1.8-7.032-3.41-9.328-7.573-1.891-7.781-.705-15.842.188-23.687l.345-3.588c.877-7.941 2.015-13.445 7.967-19.1 4.574-2.973 9.007-2.778 14.339-2.786l2.381-.015q3.896-.021 7.792-.027l5.433-.017q5.698-.015 11.397-.02c4.85-.006 9.7-.03 14.552-.058 3.743-.019 7.486-.024 11.229-.026q2.68-.004 5.362-.024c21.717-.149 21.717-.149 28.452 6.473 5.787 6.627 4.872 17.182 4.813 25.375l.023 3.262c-.041 17.08-.041 17.08-5.382 22.984-3.524 2.337-7.733 2.984-11.832 3.809-6.4 3.024-8.252 12.278-10.563 18.613l-.968 2.618q-1.02 2.765-2.037 5.533c-1.432 3.9-2.874 7.796-4.316 11.692l-2.166 5.86c-4.09 11.068-8.28 22.097-12.487 33.123a3204 3204 0 0 0-4.3 11.384C958.144 405.928 958.144 405.928 946 412c-3.394 1.087-6.574 1.139-10.126 1.161l-3.753.03-4.047.012-4.17.017q-4.368.015-8.738.02c-3.719.006-7.437.03-11.156.058-2.871.019-5.743.024-8.614.026q-2.055.004-4.11.024c-13.503.12-13.503.12-19.286-3.348-1.874-2.153-3.203-3.955-4.625-6.375l-1.259-2.084c-6.021-10.364-10.594-21.501-15.352-32.483-1.792-4.131-3.611-8.25-5.436-12.367a6440 6440 0 0 1-14.793-33.625l-.854-1.957-.852-1.954a4586 4586 0 0 0-17.641-39.905l-1.102-2.46c-3.355-7.499-6.715-14.994-10.129-22.466l-1.292-2.835a870 870 0 0 0-2.242-4.873c-1.605-3.515-2.884-6.776-3.423-10.616l-2.125-.297c-14.188-2.236-14.188-2.236-18.812-8.203-2.063-4.853-2.236-9.32-2.266-14.555l-.017-2.36q-.014-2.47-.02-4.938c-.01-2.506-.041-5.012-.072-7.518q-.01-2.404-.016-4.809l-.038-2.254c.027-6.239 1.707-10.094 5.678-14.816 5.634-4.717 11.605-4.544 18.605-4.525M782 187c-.404 3.215-.404 3.215-.434 7.152l-.015 2.111q-.01 2.208.003 4.415c.008 2.249-.02 4.494-.052 6.742q-.003 2.147.002 4.295l-.006 3.941C782 219 782 219 783.603 221.395c3.101 2.077 5.55 2.207 9.249 2.578 6.475 1.267 6.475 1.267 9.249 4.398 1.699 3.293 3.013 6.581 4.274 10.066q.771 1.937 1.56 3.865a619 619 0 0 1 3.31 8.314c2.7 6.835 5.763 13.512 8.783 20.21 1.725 3.835 3.428 7.68 5.132 11.526l2.933 6.606q4.169 9.386 8.342 18.77 3.641 8.19 7.275 16.382 6.071 13.688 12.165 27.364 1.768 3.97 3.532 7.942 3.067 6.894 6.148 13.783 1.186 2.654 2.365 5.312 1.651 3.712 3.314 7.419l.977 2.21c4.883 10.833 4.883 10.833 9.307 13.216 5.075.938 10.046.95 15.197.945l3.421.013q3.575.008 7.149.002c3.636-.003 7.272.02 10.908.045q3.48.004 6.96.002l3.28.028c5.94-.036 10.41-.319 15.567-3.391 1.825-2.111 1.825-2.111 3.133-4.531l1.477-2.707c2.203-4.378 4.307-8.769 6.265-13.262l1.392-3.181c7.147-16.636 13.366-33.657 19.716-50.607q1.975-5.265 3.958-10.527a7091 7091 0 0 0 16.469-44.106c1.38-3.737 2.766-7.47 4.173-11.196l2.338-6.202a231 231 0 0 0 4.138-12.161c3.983-12.28 3.983-12.28 7.687-14.625 3.359-1.366 6.336-1.86 9.961-2.235 3.293-.66 3.293-.66 4.976-2.797 1.54-3.346 1.69-5.662 1.68-9.336l-.002-3.724-.049-3.865.01-3.877c-.061-10.656-.061-10.656-2.322-14.061-2.991-1.496-6.117-1.382-9.406-1.555l-2.378-.127c-10.692-.509-21.394-.467-32.096-.448q-5.463.005-10.925-.007-3.519 0-7.039.004l-3.252-.006c-17.554.054-17.554.054-20.637 2.532-4.13 5.24-3.507 15.058-4.08 21.607l-.332 3.75c.165 3.695.682 4.6 3.145 7.25 2.085 1.005 2.085 1.005 4.45 1.703l2.568.781 2.67.766 2.705.813q3.297.986 6.607 1.937c-.594 4.987-1.64 9.467-3.195 14.266l-.679 2.103c-.744 2.296-1.497 4.588-2.251 6.881l-.791 2.423c-7.746 23.713-16.03 47.247-24.447 70.73l-.787 2.198c-1.198 3.348-2.4 6.695-3.614 10.037l-1.26 3.507-1.09 3.01c-.915 2.939-1.451 5.802-1.886 8.845h-2l-.335-2.08c-.774-3.4-1.975-6.413-3.306-9.639l-.83-2.03q-.905-2.206-1.815-4.41c-1.697-4.119-3.377-8.244-5.058-12.368l-1.109-2.72c-4.844-11.907-9.568-23.862-14.297-35.815l-1.367-3.454A14023 14023 0 0 1 871 226c3.88-1.139 7.714-2.188 11.688-2.937 3.404-.743 5.831-1.479 8.312-4.063 1.556-4.669 1.226-9.36 1.25-14.25l.063-3.105c.03-5.99-.287-10.413-3.313-15.645-3.077-2.051-3.705-2.251-7.175-2.26l-2.575-.022-2.814.007-2.972-.015c-3.249-.014-6.497-.013-9.745-.01l-6.76-.014a5261 5261 0 0 0-14.172-.002 3803 3803 0 0 1-18.19-.034c-4.653-.015-9.306-.016-13.959-.013q-3.354 0-6.708-.015c-3.122-.013-6.243-.006-9.366.006l-2.814-.023-2.575.02h-2.237c-2.522.488-3.405 1.341-4.938 3.375M1189 169l2.384.65c29.404 8.31 56.251 26.503 71.897 53.14 6.6 12.329 8.696 25.916 9.266 39.737l.12 2.737c.462 10.97.687 21.946.896 32.923l.064 3.23c.314 15.863.514 31.717.373 47.583l2.007.18c10.35.97 19 2.42 25.993 10.82 2.953 5.915 2.335 12.273 2.316 18.72-.003 2.207.02 4.414.045 6.622q.004 2.124.002 4.248l.01 3.87c-.52 4.934-2.354 8.193-5.31 12.103-14.235 11.329-35.56 11.63-52.962 11.677-2.135.01-4.269.041-6.404.072-15.352.119-31.97-1.275-43.697-12.312-4-4.54-4-4.54-4-7l-2.422 1.977c-22.486 18.037-48.406 21.606-76.613 18.562-23.668-3.2-42.684-13.421-57.867-31.848-12.106-16.788-13.95-39.367-11.41-59.316 3.725-20.814 13.604-36.17 30.713-48.49 21.003-14.318 46.735-19.269 71.599-21.885l3.668-.398c8.764-.806 17.54-.697 26.332-.602-1.547-6.363-2.967-11.503-8-16-16.607-8.509-37.652-6.235-55-1-4.213 1.54-8.261 3.41-12.32 5.313-8.96 4.186-17.829 7.315-27.68 4.687-7-2.908-11.183-7.901-14.226-14.765-1.24-3.183-2.395-6.386-3.524-9.61l-1.207-3.29c-5.78-16.22-5.78-16.22-2.094-24.437 7.831-14.148 25.743-20.242 40.45-24.496 5.832-1.62 11.703-3.041 17.601-4.402l2.276-.552c23.782-5.591 53.26-4.911 76.724 1.552m-78 11-2.55.618c-36.173 9.025-36.173 9.025-45.638 21.195-1.898 7.448 2.264 15.618 5 22.5l1.002 2.666c1.93 4.876 3.46 8.296 8.186 11.021 8.148 2.68 16.355-2.595 23.523-5.96 19.97-9.304 46.71-12.722 67.852-5.415 7.348 3.307 13.724 8.762 16.918 16.258 2.057 6.158 2.808 11.954 2.754 18.445l-.02 3.232L1188 267l-2.525.044c-30.211.586-61.429 1.424-89.475 13.956l-2.996 1.297c-16.374 7.58-28.089 18.897-35.004 35.703-6.094 16.907-4.644 37.708 2.32 54.11 7.814 15.455 21.515 25.386 37.68 30.89 21.72 6.93 48.516 7.26 69.438-2.312 8.768-4.825 15.656-11.544 22.562-18.688q1.996-2.005 4-4l.813 2.309c3.345 8.815 7.584 16.484 16.124 21.128 10.184 4.125 20.45 3.962 31.25 3.938h2.558c34.212-.07 34.212-.07 46.255-8.375 2.945-3.544 2.303-8.227 2.25-12.625l-.025-2.436c-.25-13.375-.25-13.375-2.225-16.939-5.406-3.397-11.188-4.162-17.375-5.187l-3.098-.538A1151 1151 0 0 0 1263 358l-.062-3.41q-.296-16.017-.617-32.034-.165-8.232-.316-16.464-.145-7.966-.31-15.931a2074 2074 0 0 1-.113-6.035c-.169-9.73-.454-19.394-1.512-29.074l-.237-2.168c-2.608-21.62-15.018-38.365-31.72-51.58-32.705-24.21-77.662-31.017-117.113-21.304M597.188 42.688l3.115-.088c6.422-.054 11.38.604 16.697 4.4 8.377 9.282 7.445 22.904 7.432 34.613l.031 5.296c.028 4.795.037 9.59.043 14.384.01 5.122.036 10.245.06 15.367q.058 13.029.088 26.057c.028 11.894.073 23.788.124 35.683.238 56.866.265 113.733.222 170.6l1.881.407 2.463.54c.807.175 1.613.35 2.444.532 5.401 1.273 9.183 3.228 12.65 7.584 2.44 4.588 2.735 8.337 2.765 13.421l.017 2.224q.014 2.33.02 4.66c.01 2.36.04 4.718.072 7.077q.01 2.27.016 4.54l.038 2.115c-.029 6.293-1.629 10.716-5.553 15.65-6.44 5.152-12.933 5.692-20.866 5.638l-2.95.016c-3.197.013-6.394.005-9.59-.006q-3.352.003-6.702.01-7.01.005-14.02-.017c-5.98-.017-11.958-.007-17.936.01-4.61.012-9.22.008-13.831 0q-3.306-.004-6.612.008c-3.085.008-6.169-.004-9.253-.02l-2.737.018c-6.016-.06-12.07-.62-16.843-4.717-6.135-6.836-6.055-15.254-6.66-23.94l-.288-3.566c-1.21-16.612-1.21-16.612 2.038-23.497 6.156-6.787 12.32-8.2 21.437-10.687V122l-12-2c-7.107-1.731-11.021-3.748-15-10-1.74-5.218-1.394-10.826-1.558-16.294-.066-2.17-.144-4.34-.223-6.51-.764-22.9-.764-22.9 4.781-30.196 4.819-4.405 9.529-6.025 15.875-7.062l2.66-.472c21.553-3.651 43.794-6.57 65.653-6.779M536.063 61l-2.92.429c-5.016.838-8.58 1.656-12.143 5.571-1.937 5.4-1.225 11.598-1.24 17.272-.01 2.155-.041 4.31-.072 6.464q-.01 2.068-.016 4.135l-.028 3.78c.384 3.612 1.169 5.48 3.356 8.349 5.574 2.713 12.307 3.238 18.387 4.082l3.768.527L548 112a94517 94517 0 0 1 .518 66.469c.336 44.948.58 89.894.544 134.844l-.002 3.366q-.016 19.66-.06 39.321l-1.772.396c-2.663.603-5.32 1.228-7.978 1.854l-2.79.621c-8.584 2.053-8.584 2.053-11.46 6.129-1.458 5.047-.985 10.186-.687 15.375l.107 2.46c.662 12.334.662 12.334 3.893 17.103 4.545 2.862 10.443 2.21 15.62 2.207l2.698.01q4.402.013 8.807.013l6.13.01q6.42.009 12.841.007c5.485 0 10.969.014 16.453.031q6.33.015 12.658.013 3.033 0 6.066.013c2.827.01 5.654.007 8.48 0 .835.007 1.67.012 2.529.018 5.052-.027 9.041-.403 13.155-3.635 3.644-4.737 2.434-11.926 2.438-17.562l.037-3.288.005-3.177.013-2.89c-.265-2.95-.911-5.068-2.243-7.708-5.954-4.122-13.896-5-21-5l.007-3.047c.134-63.166-.009-126.33-.31-189.495-.006-1.009-.01-2.018-.015-3.058l-.015-3.054q-.05-10.695-.089-21.388a14547 14547 0 0 0-.12-26.393 5501 5501 0 0 1-.061-13.663q-.02-6.33-.064-12.658-.014-2.295-.017-4.59C612.28 59.28 612.28 59.28 608 55a96 96 0 0 0-8.875-.375l-2.875.005c-20.093.32-40.357 3.292-60.187 6.37" id="svg-layer-7" style="pointer-events: all;"/><path fill="#CFDC0F" d="M734.73 51.816c10.505 7.867 17.23 18.546 19.582 31.434 1.77 13.695-.348 27.235-8.558 38.594C735.76 134.13 724.624 140.654 709 143c-16.738 1.503-32.555-2.19-46.113-12.328-11.673-10.046-16.32-21.397-18.235-36.395-.495-12.894 3.157-25.793 11.387-35.742 20.749-22.032 54.29-22.951 78.691-6.719" id="svg-layer-8" style="pointer-events: all;"/><path d="M728.218 164.838c6.808-.296 12.566 1.187 17.657 5.725 5.757 8.108 5.59 18.126 5.637 27.656l.054 4.266c.049 3.864.078 7.728.104 11.592.024 3.253.058 6.506.093 9.759.436 41.718.333 83.444.237 125.164l2.465.56 3.25.768 3.214.747c4.418 1.33 8.056 3.409 11.071 6.925 2.556 5.094 3.383 8.831 3.398 14.621l.01 2.132a448 448 0 0 1-.017 4.435c-.016 2.24 0 4.48.02 6.72.024 16.46.024 16.46-5.598 22.404-6.61 3.967-12.296 5.134-19.856 5.076l-2.625.016c-2.84.013-5.68.005-8.52-.006q-2.98.003-5.961.01-6.233.005-12.467-.017c-5.313-.017-10.625-.007-15.938.01-4.1.012-8.201.008-12.302 0q-2.937-.004-5.875.008a928 928 0 0 1-8.226-.02l-2.425.018c-8.28-.093-14.658-2.589-20.618-8.407-4.599-6.788-3.446-17.138-3.722-25.077q-.09-2.424-.207-4.846a494 494 0 0 1-.278-7.046l-.12-2.169c-.128-5.133 1.09-7.924 4.327-11.862 2.254-1.46 2.254-1.46 4.563-2.375l2.316-.96C664 350 664 350 667 350l-2-116-14-4c-4.933-3.946-6.818-6.05-8-12-.362-4.476-.432-8.922-.391-13.409.016-2.087 0-4.172-.02-6.259-.027-15.193-.027-15.193 5.162-21.44 8.409-7.073 26.948-6.372 37.526-7.627 3.283-.39 6.565-.79 9.846-1.19a693 693 0 0 1 33.095-3.237m-10.554 12.932-2.39.244q-3.825.395-7.649.798l-2.628.275a5168 5168 0 0 0-20.161 2.146q-6.233.674-12.461 1.392l-3.025.335c-8.767 1.043-8.767 1.043-12.35 3.04-3.373 5.06-2.37 10.996-2.375 16.938l-.074 3.904-.012 3.748-.025 3.433c.623 3.817 1.405 4.65 4.486 6.977 3.042.905 6.109 1.333 9.25 1.75l2.547.379c2.065.305 4.134.59 6.203.871l.031 2.712q.199 17.206.407 34.413l.033 2.775c.383 31.703.873 63.401 1.529 95.1l-2.082.411-2.73.542-2.708.536c-5.164 1.064-5.164 1.064-7.48 2.511-2.732 5.66-2.083 11.337-1.75 17.438l.121 3.064c.263 5.439.628 10.406 2.629 15.498 5.082 3.388 10.135 3.152 16.092 3.161l2.426.015q3.957.021 7.916.027l5.518.017q5.779.015 11.557.02c4.93.006 9.861.03 14.792.058 3.798.019 7.595.024 11.393.026q2.727.004 5.453.024c2.544.017 5.088.015 7.632.008l2.263.028c4.717-.037 7.964-.861 11.958-3.384 2.026-3.489 2.256-6.577 2.266-10.562l.007-3.165-.023-3.273.023-3.273c0-.523 0-.523-.007-3.164l-.007-2.872c-.29-3.012-.79-5.038-2.259-7.691-4.134-3.027-8.411-4.062-13.312-5.187-.37-.09-.37-.09-2.245-.538A818 818 0 0 0 741 358l-.023-2.72q-.276-32.736-.604-65.472c-.105-10.554-.205-21.109-.292-31.663q-.113-13.797-.26-27.594c-.052-4.87-.1-9.742-.133-14.613q-.05-6.876-.136-13.752a812 812 0 0 1-.04-5.05 698 698 0 0 0-.075-6.891l-.037-3.897c-.43-3.598-1.17-5.514-3.4-8.348-5.927-1.976-12.215-.877-18.336-.23M1188 304q.327 6.801.592 13.605.095 2.31.207 4.617c.586 12.116.176 21.065-7.854 30.708-7.416 7.893-17.053 12.526-27.89 13.273-11.137.164-21.606-1.331-30.055-9.203-6.344-8.742-6.754-17.49-6-28 1.436-6.247 5.447-9.848 10.55-13.473 16.643-10.378 41.242-11.79 60.45-11.527M734.73 51.816c10.505 7.867 17.23 18.546 19.582 31.434 1.77 13.695-.348 27.235-8.558 38.594C735.76 134.13 724.624 140.654 709 143c-16.738 1.503-32.555-2.19-46.113-12.328-11.673-10.046-16.32-21.397-18.235-36.395-.495-12.894 3.157-25.793 11.387-35.742 20.749-22.032 54.29-22.951 78.691-6.719M665 66c-8.09 10.882-9.343 21.812-8 35 2.326 9.952 8.35 18.05 16.75 23.813C686.688 132.1 701.688 133.83 716 130c12.408-4.916 19.563-11.252 25.11-23.437 3.37-9.697 3.072-20.638-.856-30.067C734.53 65.104 724.806 58.33 713 54c-16.951-4.623-35.742-.746-48 12" id="svg-layer-9" style="pointer-events: all;"/><path fill="#FDFDFD" d="m283.063 32.688 2.43.005c13.673.052 27.034.828 40.507 3.307l2.747.504C368.86 44.176 407.274 61.704 437 90a486 486 0 0 0 4.25 3.688c7.42 6.486 13.6 13.617 19.75 21.312q1.297 1.56 2.598 3.117c7.934 9.626 14.25 20.052 20.402 30.883l1.208 2.116c5.027 8.874 9.796 18.105 12.792 27.884l-1 3-1.074-2.691C485.357 153.638 469.86 128.556 450 109l-2.395-2.43-2.418-2.445-2.394-2.43C427.691 87.122 410.416 75.908 392 66l-1.898-1.049C339.879 37.236 275.737 33.353 221 48c-30.419 8.884-58.18 22.962-82 44l-1.977 1.74c-8.431 7.484-16.202 15.247-23.023 24.26l-1.539 2.032C96.575 141.19 84.874 163.076 76 188l-1.215 3.383C69.908 206.073 67.448 221.749 65 237h-1c.144-50.41 24.662-97.791 57-135l2.418-2.797C127.974 94.027 132.703 89.405 138 85l2.64-2.3c39.296-33.78 91.017-50.257 142.423-50.012M1177 317c.136 3.002.235 5.997.313 9l.126 2.543c.149 7.64-2.415 12.046-7.396 17.664-7.962 6.89-14.193 8.345-24.762 8.074-5.698-.488-9.305-1.92-13.156-6.281-3.766-5.317-4.012-10.66-3.125-17 2.168-4.86 5.888-7.254 10.688-9.25 8.498-2.713 29.2-8.806 37.312-4.75" id="svg-layer-10" style="pointer-events: all;"/><path d="M310 144c13.78-.583 25.392 1.93 36.297 10.887 6.896 6.598 10.665 13.325 13.64 22.3l.716 2.09c1.008 3.254 1.455 5.33.538 8.649C360 190 360 190 359 191c-14.019.739-28.787-5.303-39.375-14.25-8.147-7.754-12.5-16.68-13.625-27.75 3.453 1.455 5.389 3.291 7.813 6.125l2.132 2.441a137 137 0 0 1 3.672 4.524C327.312 171.757 338.3 176.796 350 180c-7.437-15.342-18.042-25.195-33.773-31.566-2.812-1.25-4.328-2.088-6.227-4.434" id="svg-layer-11" style="pointer-events: all;"/><path fill="#FDFDFD" d="M294 193c2.692 1.795 3.73 2.734 4.402 5.89.275 3.62.098 5.49-2.214 8.36-13.003 7.139-26.144 8.244-40.356 4.121-4.142-1.545-6.715-3.49-8.832-7.371-.07-4.02.24-6.113 2.875-9.187 12.507-7.254 31.242-9.914 44.125-1.813" id="svg-layer-12" style="pointer-events: all;"/><path d="m242.625 122.688 2.449.014c11.786.231 22.121 4.336 30.926 12.298 1.836 2.875 1.836 2.875 3.375 6l1.586 3.125c1.062 2.938 1.198 4.039.039 6.875l-2.203-1.977C267.792 139.361 257.866 134.275 243 133c7.234 9.518 16.592 13.47 27.484 17.605 3.28 1.302 6.387 2.768 9.516 4.395-2.525 2.525-4.208 2.308-7.662 2.38-12.678-.03-21.848-2.533-31.338-11.38-12-12.064-12-12.064-12-18.812 1-2.188 1-2.188 2.523-3.305 3.657-1.304 7.268-1.223 11.102-1.195" id="svg-layer-13" style="pointer-events: all;"/><path fill="#FCFCFC" d="M400 270h1c7.264 31.818-2.305 73.49-19 101-2.77 4.185-5.822 8.118-9 12l-1.516 1.977C358.217 401.675 337.272 411.22 317 416l-2.29.544c-7.702 1.63-15.31 1.762-23.145 1.717-2.194-.011-4.387 0-6.58.012-7.236.007-13.972-.287-20.985-2.273 3.4-1.134 5.45-.908 9-.562 28.174 2.358 59.315-3.2 81.559-21.737 3.612-3.105 7.048-6.358 10.441-9.701l1.992-1.953C381.265 366.918 388.747 344.973 393 325l.515-2.376c2.908-13.835 4.17-27.593 4.89-41.68l.2-3.874.161-3.476C399 271 399 271 400 270" id="svg-layer-14" style="pointer-events: all;"/><path fill="#FDFDFD" d="m1146.875 176.75 2.379-.002c27.704.038 54.393 5.96 76.746 23.252l1.669 1.286c12.013 9.391 22.425 20.429 28.331 34.714l-1 2-1.363-2.422c-14.672-25.05-38.195-41.081-65.907-48.926-37.928-9.061-79.573-6.464-114.73 11.348-3.775 2.38-6.96 4.727-10 8 0-3.008.276-5.184 2.32-7.488 21.673-17.404 54.831-21.741 81.555-21.762M1189 265h1v7l-2.11-.048c-37.689-.728-82.108.612-112.328 26.423-10.511 10.133-16.941 23.094-18.562 37.625l-2-2c.314-12.38 5.068-23.658 13-33l2.316-2.95c18.277-21.855 53.448-26.93 79.887-29.62 7.48-.635 14.984-.787 22.485-.993l4.474-.13q5.419-.159 10.838-.307z" id="svg-layer-15" style="pointer-events: all;"/><path fill="#CFDC0F" d="M325.43 151.813q1.735 1.072 3.445 2.187l1.838 1.195c8.471 5.725 15.23 13.346 19.287 22.805v2c-16.252-2.709-27.987-12.058-37.66-25.09A251 251 0 0 1 309 150c6.362-2.793 10.431-1.357 16.43 1.813" id="svg-layer-16" style="pointer-events: all;"/><path fill="#FDFDFD" d="M236 215c3.297.33 4.623.623 7 3-.353 4.428-1.722 8.084-3.5 12.125-3.015 6.89-3.743 12.646-4.018 20.12-.183 3.727-.366 5.581-2.482 8.755a109 109 0 0 1-7-1c-4-8-.478-20.927 2-29 4.36-10.36 4.36-10.36 8-14M1381 343l1.3 1.754c9.091 12.016 18.732 17.83 33.813 20.055 5.954.805 11.92 1.498 17.887 2.191 35.728 4.218 35.728 4.218 47.207 17.566 3.009 4.112 5.05 7.334 5.793 12.434l-1.562-2-2.438-3-1.473-1.902c-8.838-10.886-20.646-14.879-34.152-16.598l-2.72-.374a652 652 0 0 0-14.608-1.806c-13.829-1.598-27.16-3.492-39.047-11.32v-2l-1.797-.691c-2.806-1.667-3.82-3.438-5.453-6.247l-1.578-2.652C1381 346 1381 346 1381 343M961 229h2c-.317 8.201-2.52 15.204-5.312 22.875q-1.371 3.86-2.735 7.723l-.723 2.038c-2.624 7.416-5.072 14.888-7.53 22.36-4.025 12.224-8.213 24.345-12.82 36.364a227 227 0 0 0-5.974 17.726C926.224 343.495 924.1 348.742 922 354c-1.374-2.225-2.102-3.412-1.647-6.04l.83-2.141.889-2.394L923 341a508 508 0 0 0 1.495-4.426l1.587-4.672.88-2.591 2.85-8.373.995-2.922A4162 4162 0 0 1 945.375 276 1362 1362 0 0 0 961 229M967.156 183.867l3.46-.003q3.61 0 7.22.006 5.438.005 10.875-.007c10.275-.004 20.553.023 30.82.457l2.205.067c2.816.149 4.828.316 7.188 1.925 1.723 2.703 1.78 5.55 2.076 8.688l-1.937-2.437C1027 190 1027 190 1026 189c-2.479-.122-4.93-.179-7.41-.193l-2.35-.025q-3.866-.036-7.732-.055l-2.66-.017q-6.97-.039-13.938-.06c-4.808-.017-9.616-.062-14.423-.112-3.69-.034-7.378-.046-11.067-.051a550 550 0 0 1-5.318-.046 473 473 0 0 0-7.434-.024l-2.229-.05c-2.048.025-2.048.025-5.439.633-1.854 2.536-1.854 2.536-3 5h-2c1.75-6.75 1.75-6.75 4-9 7.188-1.505 14.85-1.147 22.156-1.133M789.041 183.846l2.562-.026 2.816-.013 2.962-.025q4.866-.036 9.732-.055l3.352-.017q8.782-.039 17.563-.06c6.053-.017 12.106-.062 18.159-.112 4.648-.034 9.297-.046 13.946-.051a870 870 0 0 0 6.695-.046c3.122-.032 6.242-.032 9.365-.024l2.798-.05c4.256.041 7.002.08 10.122 3.17L891 189l-1 3-2-3c-5.43-1.21-10.914-1.16-16.452-1.177l-2.791-.02q-4.54-.028-9.081-.041l-3.142-.013q-8.216-.03-16.43-.044c-5.66-.011-11.32-.046-16.979-.085-4.353-.026-8.707-.035-13.06-.038a958 958 0 0 1-6.262-.035 815 815 0 0 0-8.74-.017l-2.614-.039c-5.87.052-5.87.052-9.015 2.538L782 192c.256-2.343.593-4.678 1-7 2.267-1.134 3.523-1.135 6.041-1.154M599.063 54.438l2.682-.082c2.415.015 2.415.015 6.255.644 2.059 2.535 2.059 2.535 3 5l-2 1-1-2c-9.263-.186-18.406.357-27.625 1.188l-2.19.194c-10.913.986-21.788 2.215-32.64 3.742q-2.212.31-4.427.608c-14.1 1.914-14.1 1.914-20.118 6.268.323-2.987.501-4.549 2.773-6.604 2.32-1.455 3.919-1.974 6.602-2.423l2.68-.456 2.945-.455 3.128-.497c19.77-3.024 39.914-5.806 59.934-6.127" id="svg-layer-17" style="pointer-events: all;"/><path fill="#CFDC0F" d="M242 132c16.356 1.296 26.93 7.172 39 18l-2 4c-13.757-2.798-27.7-9.224-37-20z" id="svg-layer-18" style="pointer-events: all;"/><path fill="#FDFDFD" d="m1471 138.625 3.75-.086c3.25.461 3.25.461 5.64 2.281 1.994 2.7 2.31 4.873 2.61 8.18l-2.035-2.467c-3.56-3.042-5.928-3.251-10.399-3.064l-2.227.048c-9.91.372-19.659 2.248-29.401 3.983-32.938 5.854-32.938 5.854-40.821 2.143-2.117-1.643-2.117-1.643-2.93-4.33L1395 143l2.75 1.438c8.047 3.868 16.233 2.796 24.8 1.32l2.365-.39c2.467-.407 4.932-.825 7.398-1.243l4.92-.816c11.566-1.92 11.566-1.92 17.327-2.937 5.525-.967 10.827-1.688 16.44-1.747M1395 226l2.875 2.75c7.021 6.037 15.712 8.274 24.814 8.5l3.388.091 3.634.089q3.825.11 7.648.222c4.012.114 8.023.224 12.035.322 3.877.098 7.753.213 11.63.33l3.62.077c6.133.2 11.003.491 16.356 3.619l2 3-1 3-1.2-1.428c-7.684-6.709-26.092-3.968-35.8-4.072-35.492-.381-35.492-.381-47.062-10.062-1.883-2.369-2.35-3.574-2.938-6.438M738 180v2l-3.437-.101c-13.419-.265-26.484.93-39.794 2.555-3.489.425-6.98.832-10.47 1.237q-3.375.399-6.748.801l-3.116.367A156 156 0 0 0 657 190l-1 4h-1c.75-6.75.75-6.75 3-9a107 107 0 0 1 7.875-1.375l2.564-.37c9.332-1.301 18.698-2.338 28.061-3.38l2.347-.261c33.898-3.754 33.898-3.754 39.153.386" id="svg-layer-19" style="pointer-events: all;"/><path fill="#FCFCFB" d="M1386 266v3l-1.66.777c-24.194 11.684-42.055 26.751-52.09 52.536A178 178 0 0 0 1329 333h-1c.383-17.378 9.627-34.008 22-46 8.633-8.048 23.735-21.323 36-21" id="svg-layer-20" style="pointer-events: all;"/><path fill="#FDFDFD" d="M1188 337h2c-.178 6.987-1.844 11.423-6 17l-2.187 3.125c-5.855 6.735-15.46 11.037-24.217 12.192-2.478.155-4.926.201-7.409.183l-2.64-.01c-9.573-.246-17.37-3.035-24.547-9.49-1.363-2.14-1.363-2.14-2.312-4.25l-.989-2.14L1119 352h2l1.563 2.688c3.476 5.447 9.605 8.023 15.687 9.625 12.515 2.237 24.666.668 35.625-6 7.503-5.49 11.9-12.35 14.125-21.313M1444 423h2c-.109 4.53-.32 7.981-2.875 11.813-8.323 5.825-16.711 6.713-26.625 6.312-16.75-.555-16.75-.555-23.5 1.875-2.122 2.476-3.031 4.91-4 8q-.87 2.251-1.75 4.5L1386 459h-1c.485-7.224 1.118-14.19 6.5-19.437 3.773-2.359 6.486-2.672 10.84-2.59l3.224.037q3.321.051 6.641.117c9.508.097 18.574.012 26.795-5.127h2zM697.938 52.625l2.665.029c6.198.144 11.714.707 17.397 3.346l2.273 1.031C727.788 60.827 735.194 66.338 739 74l-1 2-1.215-1.758C729.713 64.525 719.923 58.273 708 56c-12.392-.86-24.896-.133-35 8l-3.125 2.375C663.261 72.414 661.001 79.71 658 88h-1c.43-8.888 3.293-16.839 9.367-23.562 9.298-8.187 19.309-12.017 31.57-11.813M1390 171c-.286 1.882-.286 1.882-1 4a82 82 0 0 1-7.875 3.813c-17.907 8.039-30.711 18.646-41.125 35.187l-1-2c6.518-17.912 21.562-28.8 38.188-36.562 9.69-4.438 9.69-4.438 12.812-4.438M1392.332 125.387c1.904 1.84 2.31 3.022 2.668 5.613h-2v-2c-13.7-.648-28.748.057-40 9-1.98 2.247-3.435 4.425-5 7-.668-1.758-.668-1.758-1-4 4.728-9.019 15.257-12.993 24.438-15.875 6.36-1.553 15.035-3.222 20.894.262M550 357l1 4-1.68.351q-3.786.792-7.57 1.587l-2.645.552-2.558.537-2.349.492L532 365c-.364.06-.364.06-2.206.37L528 366c-1.25 3.063-1.25 3.063-2 6l-2-1c.294-3.24.573-5.432 2.55-8.062 3.204-2.534 6.482-3.32 10.388-4.188l2.13-.523c3.701-.875 7.128-1.435 10.932-1.227M679 342h1c.284 3.102.521 6.206.75 9.313l.246 2.67c.444 6.488.444 6.488-1.695 9.06-3.046 1.267-5.938 1.807-9.18 2.332-2.524.744-3.537 1.538-5.121 3.625-.687 3.688-.687 3.688-1 7h-1c-1.486-8.766-1.486-8.766 1-13 2.715-1.363 2.715-1.363 5.938-2.312l3.214-.989C676 359 676 359 679 359zM1264 358c3.922.725 7.836 1.484 11.75 2.25l3.367.621 3.242.645 2.984.57c3.122 1.074 4.61 2.346 6.657 4.914-.25 2.25-.25 2.25-1 4l-1.233-1.418c-2.03-1.817-3.41-2.262-6.04-2.898l-2.5-.627-2.602-.62c-10.37-2.537-10.37-2.537-14.625-4.437zM286.871 181.047c9.478 2.887 19.923 8.076 27.129 14.953l1 2c-3.242-1.535-6.293-3.35-9.379-5.174C292.64 185.252 280.911 182.383 266 182c5.85-3.9 14.2-2.282 20.871-.953M317 153c16.802 7.779 16.802 7.779 21 15l-1 3a5236 5236 0 0 1-7.11-5.695 551 551 0 0 0-5.78-4.547l-2.735-2.133-2.54-1.96c-.605-.55-1.21-1.1-1.835-1.665zM741 359c17.476 2.476 17.476 2.476 22 7-.375 2.125-.375 2.125-1 4l-1.236-1.413c-2.004-1.803-3.404-2.294-5.994-2.974l-2.432-.654-2.525-.647-2.561-.681A904 904 0 0 0 741 362zM613 359c17.052 1.052 17.052 1.052 22 6-.375 2.125-.375 2.125-1 4v-2l-3.324-.805-4.364-1.07-2.185-.527c-3.847-.949-7.484-2.003-11.127-3.598zM256 139c7.569.946 13.463 5.017 19 10-3.08 0-4.133-.388-6.793-1.75l-2.158-1.094-2.236-1.156-2.272-1.156Q258.767 142.428 256 141z" id="svg-layer-21" style="pointer-events: all;"/><path fill="#F5F7D7" d="m317 149 5 1 1 4c-2.437-.812-2.437-.812-5-2z" id="svg-layer-22" style="pointer-events: all;"/></svg>