<?xml version="1.0" encoding="utf-8"?>
<svg version="1.2" baseProfile="tiny-ps" xmlns="http://www.w3.org/2000/svg" width="1720px" height="594px" viewBox="0 0 1720 594" preserveAspectRatio="xMidYMid meet">
 <g fill="#d7e727">
  <path d="M303.4 535.8 c-50.2 -1.9 -83.8 -10.7 -119.2 -30.8 -18.5 -10.7 -34.5 -23.3 -51.9 -40.9 -14 -14.4 -20.5 -22.3 -29.4 -35.6 -32.6 -48.8 -46.8 -102.4 -43.3 -163.2 2.2 -37.4 8.5 -67.2 20.7 -98.2 11.8 -30 29.2 -56.5 53.1 -81 41.9 -43 94.2 -67.6 156.5 -73.5 18.5 -1.8 56.6 -0.7 70.8 2 28.1 5.3 45.5 11.1 70.6 23.7 44.4 22.4 81.6 58.4 104.7 101.5 10.8 20 21 46.4 25.6 65.9 5.6 23.4 9 60 7.8 84 -1.6 35.2 -6.1 58.7 -16.3 86.5 -28.6 77.3 -90.1 132.5 -168.9 151.9 -7.8 1.9 -18.8 4.1 -24.4 5 -10.9 1.6 -39 3.5 -45.4 3.2 -2.2 -0.1 -6.9 -0.3 -10.8 -0.5z m37.2 -79.9 c15.8 -2.8 25.7 -6.5 37.9 -14.6 14.7 -9.5 27.2 -24.3 36.7 -43.4 27.1 -54.4 27.4 -173.1 0.4 -229.5 -20.6 -43.4 -58.3 -64.9 -113.5 -64.9 -8 0 -17.2 0.5 -20.4 1.1 -8.4 1.5 -19.2 4.8 -21 6.4 -0.8 0.8 -2.2 1.4 -3.1 1.4 -2.5 0 -12.2 5.4 -19.4 10.8 -35.8 26.8 -53.5 82.3 -51.4 160.8 1 36 4.7 60.1 13.3 86.4 7.8 23.9 18.1 41.7 32 55.5 16.2 16.1 35.2 25.9 58.5 30 10.9 2 38.9 2 49.9 0.1z"/>
  <path d="M297.1 417.4 c-30.8 -8.3 -56.8 -38.2 -66.5 -76.6 -4.1 -16.4 -5.2 -27.7 -4.6 -47.4 0.9 -31.2 8.1 -55.8 22.9 -78.1 13.6 -20.6 32.1 -32.3 55.3 -35.1 l5.6 -0.6 1.6 -5.5 c2.2 -7.3 6.4 -16.5 10.6 -23.2 5.2 -7.9 18.1 -21 26.6 -26.8 11.1 -7.5 13.7 -7.5 16 -0.5 1.5 4.2 0.9 5 -7.7 10.6 -8.3 5.4 -15.6 12.1 -21.2 19.3 -4.9 6.4 -11.7 20 -12.6 25.4 l-0.7 3.5 7.4 2.6 c4.1 1.6 10.2 4.5 13.6 6.6 8.3 5.4 23.8 21.2 29.8 30.3 16.4 25.3 24.6 54.1 24.6 86.3 -0.1 27.7 -5.7 49.5 -17.7 69.7 -7.7 12.8 -22 26.6 -34.1 32.9 -5.4 2.8 -12.3 5.6 -16.6 6.5 -9.6 2.2 -23.9 2.2 -32.3 -0.1z m-12.7 -74.4 c3.8 -3.8 1.4 -9.8 -4 -9.8 -5.5 0 -8 7.1 -3.6 10.2 2.9 2.1 5.3 2 7.6 -0.4z m-20.4 -28.2 c3.5 -3.5 3.6 -6.8 0.3 -10.8 -1.9 -2.2 -3.3 -3 -5.8 -3 -4.6 0 -6.3 0.8 -7.9 4.1 -4.5 8.7 6.4 16.6 13.4 9.7z m50.1 -26.1 c0.9 -0.8 1.6 -2.2 1.6 -2.8 0 -3.5 -6.1 -5.8 -8.6 -3.2 -2.5 2.5 -0.1 7.6 3.7 7.6 1 0 2.5 -0.7 3.3 -1.6z m-55.8 -16.6 c2.2 -13.1 5 -22.9 8.5 -30.5 4.4 -9.4 4.5 -12.5 0.4 -13.5 -3.4 -0.9 -6.3 2.1 -10.1 10.4 -4.6 10 -6.9 19 -7.6 28.9 -0.6 8.5 -0.5 9 1.8 10.5 3.4 2.4 6.1 0.3 7 -5.8z m58.8 -48.4 c16 -2.9 22.9 -12 15.1 -19.9 -6.2 -6.4 -17 -9 -30.5 -7.4 -13.6 1.6 -22.3 7.1 -22.3 14.3 0 10.3 18.5 16.6 37.6 13.1z"/>
  <path d="M389.5 203.7 c-14.1 -3.4 -28.3 -13 -35.6 -23.7 -6.1 -9.1 -11.1 -24.5 -8 -24.5 0.6 0 5.9 4.1 11.6 9.1 14.1 12.2 16.7 14.4 17.8 14.4 2.1 0 -1.9 -4.9 -13.1 -16.3 -12.9 -13.2 -13 -13.8 -2.8 -12.7 9.1 1 20 7 28.1 15.5 9.6 10.2 16.6 24.3 17.2 35 l0.3 4.4 -4.9 0.2 c-2.6 0.1 -7.5 -0.5 -10.7 -1.3z"/>
  <path d="M297.1 161.3 c-10.9 -2 -19.8 -7 -27.5 -15.5 -5.6 -6.3 -10.9 -16.4 -10.5 -19.7 0.3 -2.2 0.6 -2.3 10.5 -2.6 10.7 -0.3 17.3 1 24.9 4.9 5.8 2.9 14.9 12 17.7 17.7 2.3 4.8 3.1 8.5 1.8 8.5 -0.3 0 -4.7 -2.4 -9.6 -5.4 -8.7 -5.2 -11.1 -6.1 -12.5 -4.8 -0.4 0.4 3.7 3.9 9.1 7.8 5.4 4 9.8 7.6 9.8 8.1 0 1.9 -6.4 2.3 -13.7 1.1z"/>
  <path d="M1574 529.6 c-16.2 -1.5 -24.7 -4.3 -29.2 -9.7 -3.3 -3.9 -4.1 -8.3 -2.7 -16.3 1.8 -10.6 3.8 -15.5 7.5 -18.8 5.2 -4.6 8.8 -5.1 30.6 -4.4 18.9 0.7 19.5 0.6 23.9 -1.6 6.1 -2.9 8.8 -8 8.2 -15.3 -0.6 -6.6 -4 -10.5 -11 -12.5 -2.6 -0.8 -12.8 -2.2 -22.5 -2.9 -20.9 -1.8 -30.9 -3.5 -43.5 -7.5 -29 -9.3 -47 -25.6 -52.8 -48.3 -2.3 -9.2 -2.6 -27 -0.6 -37.8 4.7 -24.2 23.3 -47.6 48.8 -61.3 4.1 -2.2 7.5 -4.4 7.5 -4.8 0 -0.4 -2.3 -1.3 -5.2 -2 -13.4 -2.9 -27.5 -13.6 -32.3 -24.3 -4.9 -10.8 -5.4 -27.4 -1.1 -39.4 6.1 -17.3 23.4 -32.4 44.8 -39.4 2.7 -0.9 1.9 -1.3 -6.7 -3 -10.3 -2.2 -17.2 -5.6 -21.4 -10.5 -8.9 -10.4 -8.4 -24.3 1.3 -33.3 5.7 -5.4 9.9 -7.2 19.6 -9.1 20.6 -3.7 31.5 0.2 28.4 10.4 -2.3 7.8 -0.6 11.1 6.6 12.8 5.2 1.2 18.3 -0.7 46 -6.4 26.1 -5.5 38 -6.3 42.7 -2.8 4.8 3.4 7.5 10.4 7.9 20.4 0.5 10.8 -0.9 16.1 -5 20.3 -4.6 4.5 -8.5 5.5 -29 7.1 -31.7 2.5 -45.3 6.4 -57.4 15.8 -6.9 5.5 -11.3 14.6 -11.4 23 -0.1 11.5 4.1 18.1 14.3 22.8 l6.2 2.7 32.7 0.7 c36.3 0.7 37.2 0.8 42.7 7 3.9 4.4 4.5 8 4 25.6 -0.3 12.5 -0.5 14 -2.5 16.9 -4.6 6.4 -5.4 6.4 -38.3 7.1 -33 0.8 -36.1 1.2 -48.9 7.4 -9.4 4.5 -19.8 14.8 -24.2 23.6 -8 16.3 -6.3 35.4 4.2 45.1 9.9 9.1 22.3 12.4 56.1 14.8 19 1.4 27.8 3 35.7 6.7 10.1 4.9 18.9 15.1 23.2 27 3 8.4 3.7 25.9 1.4 36.2 -6.5 29.6 -34.9 53.1 -69.9 57.8 -11.3 1.5 -14.5 1.5 -28.7 0.3z"/>
  <path d="M1240.5 450.1 c-9.5 -1.9 -15.9 -4 -25.1 -8.5 -14 -6.9 -24.4 -16.4 -31.6 -28.7 -7.1 -12.1 -10.1 -23.9 -10.1 -40.2 0 -29.7 12.1 -52.9 36 -68.3 8.3 -5.3 12.8 -7.3 27.4 -12.3 19.2 -6.4 35.4 -9.1 66.6 -10.6 10.4 -0.5 19.2 -1.2 19.4 -1.5 0.9 -1 -1.8 -17.2 -3.8 -22.6 -2.7 -7.3 -8.3 -13.3 -15.7 -16.7 -6.1 -2.8 -6.4 -2.8 -23.3 -2.8 -20.1 0 -22.2 0.6 -48.9 13 -13.9 6.4 -16.9 7.4 -21.5 7.4 -10.5 0.1 -15.3 -5.1 -21.5 -22.6 -6 -16.9 -6.1 -23.5 -0.6 -30.9 4.5 -6.1 20.2 -14.3 40.6 -21.2 20.1 -6.8 27 -7.9 52.3 -8.5 24.6 -0.6 34.7 0.3 48.4 4.2 17.3 5.1 40.6 17.4 52.2 27.8 9.5 8.5 19.6 24.4 24 38.1 5.6 17.4 6.1 22.1 6.9 66.9 0.5 23.2 0.9 49.4 0.9 58.3 0.1 14.6 0.3 16.4 1.9 17.3 0.9 0.5 6.6 1.6 12.8 2.4 12.4 1.8 16.1 3.4 19.2 8.4 1.8 3 2 5.1 2 18.1 0 11.9 -0.4 15.2 -1.7 17.7 -3.9 7.1 -11.2 10.5 -31.4 14.1 -13.5 2.4 -38.7 2.6 -49.1 0.5 -14.2 -3 -23.6 -9.9 -28.9 -21 -1.9 -3.7 -3.7 -6.8 -4.1 -6.8 -0.5 0 -4.5 3.4 -9 7.6 -9.5 8.8 -21.2 16.1 -31.7 19.5 -6.7 2.3 -9.1 2.5 -26.5 2.7 -12.9 0.2 -21.3 -0.1 -26.1 -1z m58.1 -56.5 c9.1 -3 17.4 -10 21.4 -18.1 2.6 -5.6 2.7 -6.1 3 -24.9 0.2 -10.7 0 -19.4 -0.5 -19.4 -9.1 0 -34 2.4 -40.1 3.9 -20.2 4.8 -30.4 14.5 -31.4 29.8 -1 16.1 7.1 27.8 21.6 30.8 6.4 1.4 18.1 0.4 25.9 -2.2z"/>
  <path d="M994.2 443.3 c-9.8 -2.3 -12.3 -5.4 -20.3 -23.6 -3.1 -6.9 -15.9 -35.8 -28.5 -64 -12.7 -28.2 -28.6 -63.8 -35.5 -79.2 -6.8 -15.3 -13.2 -29.5 -14.2 -31.5 -1.7 -3.3 -2.2 -3.6 -8.1 -4.7 -14.5 -2.5 -15.4 -4.2 -15.1 -28.5 0.2 -19.8 0.7 -22 5.5 -25.6 2.7 -2.1 3.7 -2.1 60.2 -2.3 l57.4 -0.2 3.4 2.2 c6.1 4.1 6.7 6.8 6.7 27 0 23.6 -0.7 24.8 -15.6 27.6 -3.5 0.7 -6.7 1.6 -7.1 2 -0.8 0.7 1.5 6.9 18.7 52.3 4.3 11.3 11.5 30.4 16.1 42.5 11.9 31.5 11.5 30.8 12.6 28.9 2.7 -4.8 41 -119.5 40.7 -121.6 -0.3 -1.6 -2.9 -2.7 -12.2 -5.1 -5.5 -1.4 -9.8 -5.2 -11 -9.6 -1.3 -4.7 -1.3 -26.7 0 -33.5 1.3 -6.8 4.6 -10.3 11.1 -11.6 3.3 -0.8 19 -1 48 -0.8 38.9 0.3 43.3 0.5 46.1 2.1 5.8 3.1 6.5 6.1 6.9 24.6 0.6 25.3 -0.1 26.4 -18 30.8 -4 1 -4.2 1.2 -7.7 10.1 -2 4.9 -5.2 13.2 -6.9 18.3 -1.9 5.1 -5.8 15.4 -8.7 23 -6.6 17.4 -37.6 98.4 -46 120.2 -10.4 27.1 -10.6 27.5 -20.1 30.3 -6.5 1.9 -50.2 2 -58.1 0.1z"/>
  <path d="M588.8 442.6 c-8.2 -2.3 -10.8 -10.3 -10 -30.9 0.7 -18.8 2.5 -21.2 18.8 -24.3 4.9 -0.9 9.4 -2.2 10.1 -2.6 0.9 -0.8 1.2 -28.1 1 -133.4 l-0.3 -132.5 -7.5 -1.2 c-15.2 -2.3 -22.2 -6.3 -24.1 -13.7 -2.5 -10 -2 -39.9 1 -45.5 1.9 -3.7 6 -7.5 9.1 -8.5 4 -1.4 73.2 -7.9 82.8 -7.9 8.6 0 12.9 2.2 15.7 7.8 1.7 3.2 1.8 13.3 1.8 168.6 0 90.9 0.4 165.7 0.8 166.3 0.4 0.7 4.2 1.9 8.4 2.7 9.6 1.8 14.2 4.1 16.7 8.4 1.8 2.9 2 5.1 2 20.4 0 19.4 -0.6 21.5 -7.3 25.3 -3.6 2.1 -4.6 2.1 -59.7 2 -30.9 0 -57.5 -0.5 -59 -1z"/>
  <path d="M741.3 442.3 c-7.9 -3.4 -9.9 -10 -9.1 -31.6 0.6 -16.7 2.2 -19.1 15.6 -21.9 2.8 -0.6 5.8 -1.6 6.4 -2.1 0.9 -0.8 1.2 -16.1 1 -73 l-0.3 -71.9 -9.6 -1.2 c-10.8 -1.4 -15.6 -3.3 -18.7 -7.4 -1.9 -2.5 -2.1 -4.1 -2.1 -21.1 0 -15.8 0.2 -18.7 1.8 -20.9 2.6 -4.1 5.9 -5.7 13.6 -6.6 42.3 -5.1 60.9 -6.9 71.8 -7.1 12.4 -0.1 12.9 0 15.4 2.3 1.5 1.4 3.1 3.5 3.8 4.9 0.8 1.8 1.2 30.3 1.6 102.1 l0.5 99.6 10.3 2.6 c16 4.2 17.1 6.3 16.4 32.3 -0.3 15 -1.2 17.3 -7.7 20.5 -3 1.6 -7.7 1.8 -55.6 1.8 -41.2 -0.1 -52.9 -0.4 -55.2 -1.4z"/>
  <path d="M770.1 135.3 c-15.8 -4.1 -28.6 -14.2 -34.9 -27.4 -3.7 -7.6 -3.7 -7.8 -3.7 -19.9 0 -10.5 0.4 -13 2.2 -17.8 5.3 -13.1 16.7 -23.6 31.5 -28.8 9.8 -3.4 25.8 -4.2 35.2 -1.8 27.1 7 42.8 29.1 39 54.7 -2.9 19.4 -18.1 35.9 -37.6 40.9 -7.5 2 -24.3 2 -31.7 0z"/>
 </g>
</svg>